<?xml version="1.0" standalone="no"?>
<!DOCTYPE svg PUBLIC "-//W3C//DTD SVG 20010904//EN"
 "http://www.w3.org/TR/2001/REC-SVG-20010904/DTD/svg10.dtd">
<svg version="1.0" xmlns="http://www.w3.org/2000/svg"
 width="1000.000000pt" height="1000.000000pt" viewBox="0 0 1000.000000 1000.000000"
 preserveAspectRatio="xMidYMid meet">
<metadata>
Created by potrace 1.14, written by Peter Selinger 2001-2017
</metadata>
<g transform="translate(0.000000,1000.000000) scale(0.100000,-0.100000)"
fill="#000000" stroke="none">
<path d="M1630 8020 c-93 -93 -167 -711 -141 -1181 11 -199 38 -441 61 -547
l12 -53 20 38 c11 21 33 62 49 91 16 30 26 58 23 64 -4 6 -2 8 4 5 6 -4 24 18
43 50 17 32 67 111 110 175 78 116 89 135 69 123 -6 -3 -7 1 -3 10 4 11 8 13
13 5 4 -7 23 10 49 45 23 30 39 60 35 67 -4 6 -3 8 3 5 14 -9 66 60 57 75 -4
6 -3 8 3 5 9 -6 54 43 195 208 15 18 24 36 20 40 -4 3 0 5 8 3 9 -2 14 3 12
12 -2 8 0 12 4 8 4 -5 68 52 143 125 75 73 164 156 198 184 l62 52 -97 54
c-268 150 -609 295 -788 337 -91 21 -143 21 -164 0z m500 -914 c0 -2 -8 -10
-17 -17 -16 -13 -17 -12 -4 4 13 16 21 21 21 13z"/>
<path d="M8190 8015 c-128 -33 -190 -57 -183 -68 3 -6 1 -7 -5 -3 -23 14 -318
-116 -554 -245 l-128 -70 35 -30 c20 -18 39 -27 46 -23 7 4 9 3 6 -3 -9 -15
71 -85 86 -77 7 4 9 4 5 -1 -4 -4 65 -83 155 -174 89 -91 200 -212 245 -268
62 -75 89 -101 103 -98 10 2 21 0 24 -5 3 -5 -4 -7 -15 -5 -11 2 -20 2 -20 -1
0 -3 27 -40 59 -83 70 -92 205 -294 251 -374 18 -32 36 -54 42 -50 6 3 8 1 5
-4 -4 -6 15 -52 42 -103 l49 -93 12 54 c23 107 50 348 61 552 22 421 -34 976
-116 1137 -36 70 -54 73 -205 35z m-299 -922 c13 -16 12 -17 -3 -4 -10 7 -18
15 -18 17 0 8 8 3 21 -13z"/>
<path d="M2515 5648 c-123 -23 -250 -120 -308 -234 -109 -216 -16 -484 206
-589 217 -104 466 -15 574 203 37 75 38 78 38 191 0 110 -2 120 -32 184 -61
128 -189 224 -329 247 -68 11 -81 11 -149 -2z"/>
<path d="M7327 5650 c-130 -22 -261 -123 -320 -247 -30 -64 -32 -74 -32 -183
0 -114 1 -117 38 -192 85 -174 271 -272 453 -241 260 45 423 290 359 538 -44
168 -179 293 -349 324 -66 12 -80 12 -149 1z"/>
<path d="M4410 5090 c-401 -30 -698 -84 -915 -165 -138 -52 -332 -165 -319
-186 3 -5 -1 -6 -8 -4 -13 5 -74 -48 -80 -70 -2 -5 -6 -9 -10 -8 -12 4 -79
-87 -72 -98 4 -7 3 -9 -4 -5 -16 9 -79 -109 -114 -213 -102 -307 -86 -749 44
-1141 39 -119 114 -286 128 -283 5 2 7 -3 5 -10 -16 -41 314 -491 346 -471 5
3 8 0 7 -8 -2 -7 3 -12 10 -10 8 1 11 -2 7 -7 -13 -22 337 -284 380 -284 8 0
12 -3 10 -7 -7 -11 205 -106 333 -151 132 -45 332 -91 482 -110 140 -18 580
-18 720 0 410 52 789 203 1064 421 109 87 207 181 199 193 -3 5 -1 7 5 4 13
-9 64 51 56 65 -4 6 -3 8 3 5 13 -8 37 18 107 117 31 43 53 83 49 89 -3 5 -2
7 4 4 12 -8 90 128 149 258 126 279 193 621 181 930 -7 166 -26 278 -67 399
-42 126 -128 274 -151 261 -5 -3 -6 0 -3 8 6 17 -109 127 -189 180 -214 142
-517 230 -961 278 -165 18 -266 22 -736 24 -300 2 -597 -1 -660 -5z m-362
-997 c-10 -2 -28 -2 -40 0 -13 2 -5 4 17 4 22 1 32 -1 23 -4z m2022 -4 c206
-33 268 -193 249 -644 -7 -168 -28 -253 -78 -322 -16 -23 -27 -44 -23 -48 3
-3 -2 -3 -12 1 -15 6 -17 4 -11 -7 4 -8 4 -11 0 -6 -5 4 -18 1 -29 -7 -32 -20
-119 -36 -194 -35 -63 2 -61 2 29 9 165 13 238 66 281 202 21 68 23 90 23 328
0 235 -2 260 -22 325 -26 81 -78 150 -132 173 -20 8 -76 21 -126 27 -49 7 -74
13 -55 14 19 0 64 -4 100 -10z m-2125 -6 c-119 -16 -190 -77 -228 -197 -20
-66 -22 -90 -22 -326 0 -235 2 -260 22 -325 35 -112 91 -170 189 -195 l39 -10
-43 5 c-24 3 -54 12 -66 20 -12 8 -26 12 -29 8 -4 -3 -7 -1 -7 6 0 7 -5 9 -12
5 -7 -4 -10 -4 -6 0 4 5 -7 26 -23 49 -16 22 -39 70 -50 106 -41 131 -41 531
0 663 40 124 126 198 231 196 33 -1 33 -1 5 -5z m220 -7 c19 -8 35 -13 35 -10
0 3 10 -4 22 -16 12 -11 24 -20 28 -20 11 0 68 -104 78 -143 6 -20 7 -35 2
-32 -5 3 -12 19 -15 37 -11 50 -63 125 -103 150 -20 12 -62 28 -92 34 -44 10
-48 12 -22 13 18 1 48 -6 67 -13z m1713 0 c-64 -14 -117 -47 -153 -97 -28 -38
-34 -32 -8 9 23 35 60 71 67 64 3 -3 6 1 6 8 0 7 2 11 5 8 3 -3 22 1 43 8 20
7 51 13 67 13 20 -1 10 -5 -27 -13z m-192 -182 c-8 -21 -15 -31 -15 -22 -1 21
18 72 24 66 3 -3 -1 -22 -9 -44z m-1337 -138 c1 -57 -5 -40 -12 29 -3 37 -2
51 3 35 4 -14 8 -43 9 -64z m1315 47 c-4 -21 -11 -119 -14 -218 l-8 -180 4
190 c3 176 9 245 21 245 3 0 2 -17 -3 -37z m-1307 -320 c-1 -43 -3 -10 -3 72
0 83 2 118 3 78 2 -40 2 -107 0 -150z m-10 -135 c-2 -13 -4 -5 -4 17 -1 22 1
32 4 23 2 -10 2 -28 0 -40z m1326 -88 c6 -34 6 -34 -8 5 -7 22 -13 60 -13 85
l0 45 8 -50 c4 -27 10 -66 13 -85z m-1324 43 c0 -5 -7 -24 -15 -43 -9 -22 -12
-26 -9 -10 2 14 5 33 5 43 0 9 5 17 10 17 6 0 10 -3 9 -7z m-39 -123 c-6 -11
-8 -26 -4 -32 4 -7 3 -8 -4 -4 -7 4 -17 -3 -23 -18 -14 -30 -73 -73 -120 -86
-55 -16 -69 -10 -15 6 75 23 112 53 143 114 15 31 29 52 31 48 2 -4 -2 -16 -8
-28z m1473 -102 c23 -14 59 -30 80 -33 21 -4 36 -10 33 -12 -10 -10 -98 18
-128 40 -29 22 -88 113 -88 137 0 7 14 -14 31 -46 21 -42 42 -67 72 -86z
m-1725 -55 c-21 -2 -55 -2 -75 0 -21 2 -4 4 37 4 41 0 58 -2 38 -4z"/>
</g>
</svg>
