<svg width="25" height="25" viewBox="0 0 25 25" fill="none" xmlns="http://www.w3.org/2000/svg">
<path d="M12.2727 0C5.50555 0 0 5.64277 0 12.5786C0 18.8717 4.53723 24.0849 10.4318 25V15.7233H7.97727C7.63855 15.7233 7.36364 15.4421 7.36364 15.0943V13.2075C7.36364 12.8597 7.63855 12.5786 7.97727 12.5786H10.4318V10.2943C10.4318 7.30629 11.9211 5.66038 14.6254 5.66038C15.7214 5.66038 16.586 5.73836 16.6222 5.74151C16.9388 5.77044 17.1818 6.04214 17.1818 6.36792V8.49057C17.1818 8.83836 16.9069 9.1195 16.5682 9.1195H15.3409C14.6641 9.1195 14.1136 9.68365 14.1136 10.3774V12.5786H16.5682C16.7443 12.5786 16.9118 12.656 17.0284 12.7912C17.145 12.927 17.199 13.1069 17.1775 13.2855L16.9474 15.1723C16.9088 15.4868 16.6473 15.7233 16.3381 15.7233H14.1136V25C20.0082 24.0849 24.5455 18.8717 24.5455 12.5786C24.5455 5.64277 19.0399 0 12.2727 0Z" fill="black"/>
</svg>
