<svg width="34" height="34" viewBox="0 0 34 34" fill="none" xmlns="http://www.w3.org/2000/svg">
<path d="M15.4417 2.97501C8.925 3.68334 3.68333 8.92501 2.975 15.3C2.26666 21.9583 6.09166 27.9083 11.9 30.175C12.325 30.3167 12.75 30.0333 12.75 29.4667V27.2C12.75 27.2 12.1833 27.3417 11.475 27.3417C9.49167 27.3417 8.64166 25.6417 8.5 24.65C8.35833 24.0833 8.075 23.6583 7.65 23.2333C7.225 23.0917 7.08333 23.0917 7.08333 22.95C7.08333 22.6667 7.50833 22.6667 7.65 22.6667C8.5 22.6667 9.20833 23.6583 9.49166 24.0833C10.2 25.2167 11.05 25.5 11.475 25.5C12.0417 25.5 12.4667 25.3583 12.75 25.2167C12.8917 24.225 13.3167 23.2333 14.1667 22.6667C10.9083 21.9583 8.5 20.1167 8.5 17C8.5 15.4417 9.20833 13.8833 10.2 12.75C10.0583 12.4667 9.91666 11.7583 9.91666 10.7667C9.91666 10.2 9.91666 9.49168 10.2 8.92501C10.2 8.64168 10.4833 8.50001 10.625 8.50001H10.7667C11.475 8.64168 12.8917 9.06668 14.1667 10.3417C15.0167 10.0583 16.0083 9.91668 17 9.91668C17.9917 9.91668 18.9833 10.0583 19.8333 10.3417C21.1083 9.06668 22.6667 8.64168 23.375 8.50001H23.5167C23.8 8.50001 23.9417 8.64168 24.0833 8.92501C24.0833 9.49168 24.0833 10.2 24.0833 10.7667C24.0833 11.9 23.9417 12.4667 23.8 12.75C24.7917 13.8833 25.5 15.3 25.5 17C25.5 20.1167 23.0917 21.9583 19.8333 22.6667C20.6833 23.375 21.25 24.65 21.25 25.925V29.6083C21.25 30.0333 21.675 30.4583 22.2417 30.3167C27.4833 28.1917 31.1667 23.0917 31.1667 17.1417C31.1667 8.64168 23.9417 1.98334 15.4417 2.97501Z" fill="black"/>
</svg>
