<svg width="25" height="25" viewBox="0 0 25 25" fill="none" xmlns="http://www.w3.org/2000/svg">
<path d="M7.61005 0C3.51419 0 0.18182 3.39408 0.18182 7.56579V17.4342C0.18182 21.6059 3.51419 25 7.61005 25H17.299C21.3949 25 24.7273 21.6059 24.7273 17.4342V7.56579C24.7273 3.39408 21.3949 0 17.299 0H7.61005ZM18.9139 4.60526C19.6276 4.60526 20.2057 5.19408 20.2057 5.92105C20.2057 6.64737 19.6276 7.23684 18.9139 7.23684C18.2001 7.23684 17.622 6.64737 17.622 5.92105C17.622 5.19408 18.2001 4.60526 18.9139 4.60526ZM12.4545 5.92105C16.0162 5.92105 18.9139 8.87237 18.9139 12.5C18.9139 16.1276 16.0162 19.0789 12.4545 19.0789C8.89287 19.0789 5.99522 16.1276 5.99522 12.5C5.99522 8.87237 8.89287 5.92105 12.4545 5.92105ZM12.4545 7.89474C11.8608 7.89474 11.2728 8.01386 10.7242 8.24529C10.1757 8.47673 9.6772 8.81595 9.25734 9.24359C8.83748 9.67123 8.50442 10.1789 8.2772 10.7376C8.04997 11.2964 7.93302 11.8952 7.93302 12.5C7.93302 13.1048 8.04997 13.7036 8.2772 14.2624C8.50442 14.8211 8.83748 15.3288 9.25734 15.7564C9.6772 16.1841 10.1757 16.5233 10.7242 16.7547C11.2728 16.9861 11.8608 17.1053 12.4545 17.1053C13.0483 17.1053 13.6363 16.9861 14.1849 16.7547C14.7334 16.5233 15.2319 16.1841 15.6518 15.7564C16.0716 15.3288 16.4047 14.8211 16.6319 14.2624C16.8591 13.7036 16.9761 13.1048 16.9761 12.5C16.9761 11.8952 16.8591 11.2964 16.6319 10.7376C16.4047 10.1789 16.0716 9.67123 15.6518 9.24359C15.2319 8.81595 14.7334 8.47673 14.1849 8.24529C13.6363 8.01386 13.0483 7.89474 12.4545 7.89474V7.89474Z" fill="black"/>
</svg>
