<svg width="186" height="62" viewBox="0 0 186 62" fill="none" xmlns="http://www.w3.org/2000/svg">
<rect y="4" width="55" height="55" rx="10" fill="black"/>
<path d="M17.0463 20.3977L8.81339 24.5909V22.9545L15.1287 19.9119L15.0776 20.0142V19.7585L15.1287 19.8608L8.81339 16.8182V15.1818L17.0463 19.375V20.3977ZM27.0195 25V26.4062H18.8377V25H27.0195Z" fill="white"/>
<path d="M69.2494 8.71453H71.829L75.2835 17.1463H75.4199L78.8744 8.71453H81.454V20.3509H79.4312V12.3566H79.3233L76.1074 20.3168H74.596L71.3801 12.3395H71.2721V20.3509H69.2494V8.71453ZM87.4653 20.5213C86.613 20.5213 85.8744 20.3338 85.2494 19.9588C84.6244 19.5838 84.1396 19.0592 83.7949 18.385C83.454 17.7107 83.2835 16.9229 83.2835 16.0213C83.2835 15.1198 83.454 14.3301 83.7949 13.652C84.1396 12.974 84.6244 12.4475 85.2494 12.0725C85.8744 11.6975 86.613 11.51 87.4653 11.51C88.3176 11.51 89.0562 11.6975 89.6812 12.0725C90.3062 12.4475 90.7892 12.974 91.1301 13.652C91.4748 14.3301 91.6471 15.1198 91.6471 16.0213C91.6471 16.9229 91.4748 17.7107 91.1301 18.385C90.7892 19.0592 90.3062 19.5838 89.6812 19.9588C89.0562 20.3338 88.3176 20.5213 87.4653 20.5213ZM87.4767 18.8736C87.9388 18.8736 88.3252 18.7467 88.6358 18.4929C88.9464 18.2354 89.1774 17.8907 89.329 17.4588C89.4843 17.027 89.5619 16.546 89.5619 16.0157C89.5619 15.4816 89.4843 14.9986 89.329 14.5668C89.1774 14.1312 88.9464 13.7846 88.6358 13.527C88.3252 13.2695 87.9388 13.1407 87.4767 13.1407C87.0032 13.1407 86.6093 13.2695 86.2949 13.527C85.9843 13.7846 85.7513 14.1312 85.596 14.5668C85.4445 14.9986 85.3687 15.4816 85.3687 16.0157C85.3687 16.546 85.4445 17.027 85.596 17.4588C85.7513 17.8907 85.9843 18.2354 86.2949 18.4929C86.6093 18.7467 87.0032 18.8736 87.4767 18.8736ZM96.6315 20.5043C95.9459 20.5043 95.3323 20.3282 94.7906 19.9759C94.2489 19.6236 93.8209 19.1123 93.5065 18.4418C93.1921 17.7713 93.0349 16.957 93.0349 15.9986C93.0349 15.0289 93.194 14.2107 93.5122 13.5441C93.8342 12.8736 94.2679 12.3679 94.8133 12.027C95.3588 11.6823 95.9667 11.51 96.6372 11.51C97.1486 11.51 97.569 11.5971 97.8986 11.7713C98.2281 11.9418 98.4895 12.1482 98.6827 12.3907C98.8758 12.6293 99.0255 12.8547 99.1315 13.0668H99.2167V8.71453H101.279V20.3509H99.2565V18.9759H99.1315C99.0255 19.188 98.872 19.4134 98.6713 19.652C98.4705 19.8869 98.2054 20.0876 97.8758 20.2543C97.5463 20.421 97.1315 20.5043 96.6315 20.5043ZM97.2054 18.8168C97.641 18.8168 98.0122 18.6994 98.319 18.4645C98.6258 18.2259 98.8588 17.8945 99.0179 17.4702C99.177 17.046 99.2565 16.5516 99.2565 15.9873C99.2565 15.4229 99.177 14.9323 99.0179 14.5157C98.8626 14.099 98.6315 13.7751 98.3247 13.5441C98.0217 13.313 97.6486 13.1975 97.2054 13.1975C96.747 13.1975 96.3645 13.3168 96.0577 13.5554C95.7508 13.7941 95.5198 14.1236 95.3645 14.5441C95.2092 14.9645 95.1315 15.4456 95.1315 15.9873C95.1315 16.5327 95.2092 17.0195 95.3645 17.4475C95.5236 17.8717 95.7565 18.207 96.0633 18.4532C96.3739 18.6956 96.7546 18.8168 97.2054 18.8168ZM107.335 20.5213C106.46 20.5213 105.704 20.3395 105.068 19.9759C104.435 19.6085 103.948 19.0895 103.607 18.4191C103.266 17.7448 103.096 16.9513 103.096 16.0384C103.096 15.1407 103.266 14.3528 103.607 13.6748C103.952 12.9929 104.433 12.4626 105.051 12.0838C105.668 11.7013 106.393 11.51 107.227 11.51C107.765 11.51 108.272 11.5971 108.749 11.7713C109.23 11.9418 109.655 12.207 110.022 12.5668C110.393 12.9266 110.685 13.385 110.897 13.9418C111.109 14.4948 111.215 15.1539 111.215 15.9191V16.5498H104.062V15.1634H109.244C109.24 14.7695 109.155 14.4191 108.988 14.1123C108.821 13.8016 108.588 13.5573 108.289 13.3793C107.994 13.2013 107.649 13.1123 107.255 13.1123C106.835 13.1123 106.465 13.2145 106.147 13.4191C105.829 13.6198 105.581 13.885 105.403 14.2145C105.229 14.5403 105.14 14.8982 105.136 15.2884V16.4986C105.136 17.0062 105.229 17.4418 105.414 17.8054C105.6 18.1653 105.859 18.4418 106.193 18.635C106.526 18.8244 106.916 18.9191 107.363 18.9191C107.662 18.9191 107.933 18.8774 108.176 18.7941C108.418 18.707 108.628 18.5801 108.806 18.4134C108.984 18.2467 109.119 18.0403 109.21 17.7941L111.13 18.01C111.009 18.5176 110.778 18.9607 110.437 19.3395C110.1 19.7145 109.668 20.0062 109.141 20.2145C108.615 20.4191 108.013 20.5213 107.335 20.5213ZM112.955 20.3509V11.6236H114.95V13.0782H115.041C115.2 12.5744 115.472 12.1861 115.859 11.9134C116.249 11.6369 116.694 11.4986 117.194 11.4986C117.308 11.4986 117.435 11.5043 117.575 11.5157C117.719 11.5232 117.838 11.5365 117.933 11.5554V13.4475C117.846 13.4172 117.707 13.3907 117.518 13.3679C117.332 13.3414 117.152 13.3282 116.978 13.3282C116.603 13.3282 116.266 13.4096 115.967 13.5725C115.671 13.7316 115.438 13.9532 115.268 14.2373C115.097 14.5213 115.012 14.849 115.012 15.2202V20.3509H112.955ZM121.356 15.2373V20.3509H119.299V11.6236H121.265V13.1066H121.367C121.568 12.6179 121.888 12.2297 122.328 11.9418C122.771 11.6539 123.318 11.51 123.97 11.51C124.572 11.51 125.096 11.6388 125.543 11.8963C125.994 12.1539 126.343 12.527 126.589 13.0157C126.839 13.5043 126.962 14.0971 126.958 14.7941V20.3509H124.901V15.1123C124.901 14.5289 124.75 14.0725 124.447 13.7429C124.148 13.4134 123.733 13.2486 123.203 13.2486C122.843 13.2486 122.523 13.3282 122.242 13.4873C121.966 13.6426 121.748 13.8679 121.589 14.1634C121.434 14.4588 121.356 14.8168 121.356 15.2373ZM71.6983 39.3509L68.4142 27.7145H70.6812L72.7778 36.2657H72.8858L75.1244 27.7145H77.1869L79.4312 36.2713H79.5335L81.6301 27.7145H83.8971L80.613 39.3509H78.5335L76.204 31.1861H76.113L73.7778 39.3509H71.6983ZM88.2409 39.5213C87.3659 39.5213 86.6102 39.3395 85.9738 38.9759C85.3413 38.6085 84.8545 38.0895 84.5136 37.4191C84.1727 36.7448 84.0023 35.9513 84.0023 35.0384C84.0023 34.1407 84.1727 33.3528 84.5136 32.6748C84.8583 31.9929 85.3394 31.4626 85.9568 31.0838C86.5742 30.7013 87.2996 30.51 88.1329 30.51C88.6708 30.51 89.1784 30.5971 89.6557 30.7713C90.1367 30.9418 90.561 31.207 90.9284 31.5668C91.2996 31.9266 91.5913 32.385 91.8034 32.9418C92.0155 33.4948 92.1216 34.1539 92.1216 34.9191V35.5498H84.9682V34.1634H90.15C90.1462 33.7695 90.061 33.4191 89.8943 33.1123C89.7276 32.8016 89.4947 32.5573 89.1954 32.3793C88.9 32.2013 88.5553 32.1123 88.1613 32.1123C87.7409 32.1123 87.3716 32.2145 87.0534 32.4191C86.7352 32.6198 86.4871 32.885 86.3091 33.2145C86.1348 33.5403 86.0458 33.8982 86.042 34.2884V35.4986C86.042 36.0062 86.1348 36.4418 86.3204 36.8054C86.506 37.1653 86.7655 37.4418 87.0988 37.635C87.4322 37.8244 87.8223 37.9191 88.2693 37.9191C88.5685 37.9191 88.8394 37.8774 89.0818 37.7941C89.3242 37.707 89.5344 37.5801 89.7125 37.4134C89.8905 37.2467 90.025 37.0403 90.1159 36.7941L92.0363 37.01C91.9151 37.5176 91.6841 37.9607 91.3432 38.3395C91.006 38.7145 90.5742 39.0062 90.0477 39.2145C89.5212 39.4191 88.9189 39.5213 88.2409 39.5213ZM93.9525 39.3509V27.7145H96.0094V32.0668H96.0946C96.2006 31.8547 96.3503 31.6293 96.5434 31.3907C96.7366 31.1482 96.998 30.9418 97.3275 30.7713C97.6571 30.5971 98.0775 30.51 98.5889 30.51C99.2631 30.51 99.8711 30.6823 100.413 31.027C100.958 31.3679 101.39 31.8736 101.708 32.5441C102.03 33.2107 102.191 34.0289 102.191 34.9986C102.191 35.957 102.034 36.7713 101.72 37.4418C101.405 38.1123 100.977 38.6236 100.435 38.9759C99.8938 39.3282 99.2802 39.5043 98.5946 39.5043C98.0946 39.5043 97.6798 39.421 97.3503 39.2543C97.0207 39.0876 96.7556 38.8869 96.5548 38.652C96.3578 38.4134 96.2044 38.188 96.0946 37.9759H95.9753V39.3509H93.9525ZM95.9696 34.9873C95.9696 35.5516 96.0491 36.046 96.2082 36.4702C96.3711 36.8945 96.6041 37.2259 96.9071 37.4645C97.2139 37.6994 97.5851 37.8168 98.0207 37.8168C98.4753 37.8168 98.8559 37.6956 99.1628 37.4532C99.4696 37.207 99.7006 36.8717 99.8559 36.4475C100.015 36.0195 100.095 35.5327 100.095 34.9873C100.095 34.4456 100.017 33.9645 99.8616 33.5441C99.7063 33.1236 99.4753 32.7941 99.1684 32.5554C98.8616 32.3168 98.4791 32.1975 98.0207 32.1975C97.5813 32.1975 97.2082 32.313 96.9014 32.5441C96.5946 32.7751 96.3616 33.099 96.2025 33.5157C96.0472 33.9323 95.9696 34.4229 95.9696 34.9873ZM68.738 48.4816V46.7145H78.0221V48.4816H74.4255V58.3509H72.3346V48.4816H68.738ZM82.319 58.5213C81.444 58.5213 80.6883 58.3395 80.052 57.9759C79.4194 57.6085 78.9327 57.0895 78.5917 56.4191C78.2508 55.7448 78.0804 54.9513 78.0804 54.0384C78.0804 53.1407 78.2508 52.3528 78.5917 51.6748C78.9364 50.9929 79.4175 50.4626 80.0349 50.0838C80.6523 49.7013 81.3777 49.51 82.2111 49.51C82.7489 49.51 83.2565 49.5971 83.7338 49.7713C84.2148 49.9418 84.6391 50.207 85.0065 50.5668C85.3777 50.9266 85.6694 51.385 85.8815 51.9418C86.0936 52.4948 86.1997 53.1539 86.1997 53.9191V54.5498H79.0463V53.1634H84.2281C84.2243 52.7695 84.1391 52.4191 83.9724 52.1123C83.8058 51.8016 83.5728 51.5573 83.2736 51.3793C82.9781 51.2013 82.6334 51.1123 82.2395 51.1123C81.819 51.1123 81.4497 51.2145 81.1315 51.4191C80.8133 51.6198 80.5652 51.885 80.3872 52.2145C80.213 52.5403 80.1239 52.8982 80.1202 53.2884V54.4986C80.1202 55.0062 80.213 55.4418 80.3986 55.8054C80.5842 56.1653 80.8436 56.4418 81.177 56.635C81.5103 56.8244 81.9005 56.9191 82.3474 56.9191C82.6467 56.9191 82.9175 56.8774 83.1599 56.7941C83.4023 56.707 83.6126 56.5801 83.7906 56.4134C83.9686 56.2467 84.1031 56.0403 84.194 55.7941L86.1145 56.01C85.9933 56.5176 85.7622 56.9607 85.4213 57.3395C85.0842 57.7145 84.6523 58.0062 84.1258 58.2145C83.5993 58.4191 82.997 58.5213 82.319 58.5213ZM91.7466 58.5213C90.8754 58.5213 90.1273 58.3301 89.5023 57.9475C88.881 57.5649 88.4019 57.0365 88.0648 56.3623C87.7314 55.6842 87.5648 54.9039 87.5648 54.0213C87.5648 53.135 87.7352 52.3528 88.0761 51.6748C88.417 50.9929 88.8981 50.4626 89.5193 50.0838C90.1443 49.7013 90.8829 49.51 91.7352 49.51C92.4435 49.51 93.0704 49.6407 93.6159 49.902C94.1651 50.1596 94.6026 50.5251 94.9284 50.9986C95.2541 51.4683 95.4398 52.0176 95.4852 52.6463H93.5193C93.4398 52.2259 93.2504 51.8755 92.9511 51.5952C92.6557 51.3111 92.2598 51.1691 91.7636 51.1691C91.3432 51.1691 90.9738 51.2827 90.6557 51.51C90.3375 51.7335 90.0894 52.0554 89.9113 52.4759C89.7371 52.8963 89.65 53.4001 89.65 53.9873C89.65 54.582 89.7371 55.0933 89.9113 55.5213C90.0856 55.9456 90.3299 56.2732 90.6443 56.5043C90.9625 56.7316 91.3356 56.8452 91.7636 56.8452C92.0666 56.8452 92.3375 56.7884 92.5761 56.6748C92.8185 56.5573 93.0212 56.3888 93.1841 56.1691C93.347 55.9494 93.4587 55.6823 93.5193 55.3679H95.4852C95.436 55.9854 95.2541 56.5327 94.9398 57.01C94.6254 57.4835 94.1973 57.8547 93.6557 58.1236C93.114 58.3888 92.4776 58.5213 91.7466 58.5213ZM99.2309 53.2373V58.3509H97.1741V46.7145H99.1855V51.1066H99.2878C99.4923 50.6141 99.8086 50.2259 100.237 49.9418C100.668 49.6539 101.218 49.51 101.884 49.51C102.49 49.51 103.019 49.6369 103.47 49.8907C103.92 50.1445 104.269 50.5157 104.515 51.0043C104.765 51.4929 104.89 52.0895 104.89 52.7941V58.3509H102.833V53.1123C102.833 52.5251 102.682 52.0687 102.379 51.7429C102.079 51.4134 101.659 51.2486 101.117 51.2486C100.754 51.2486 100.428 51.3282 100.14 51.4873C99.8559 51.6426 99.6325 51.8679 99.4696 52.1634C99.3105 52.4588 99.2309 52.8168 99.2309 53.2373ZM109.043 53.2373V58.3509H106.987V49.6236H108.953V51.1066H109.055C109.256 50.6179 109.576 50.2297 110.015 49.9418C110.458 49.6539 111.006 49.51 111.657 49.51C112.259 49.51 112.784 49.6388 113.231 49.8963C113.682 50.1539 114.03 50.527 114.276 51.0157C114.526 51.5043 114.65 52.0971 114.646 52.7941V58.3509H112.589V53.1123C112.589 52.5289 112.437 52.0725 112.134 51.7429C111.835 51.4134 111.42 51.2486 110.89 51.2486C110.53 51.2486 110.21 51.3282 109.93 51.4873C109.653 51.6426 109.435 51.8679 109.276 52.1634C109.121 52.4588 109.043 52.8168 109.043 53.2373ZM120.543 58.5213C119.691 58.5213 118.953 58.3338 118.328 57.9588C117.703 57.5838 117.218 57.0592 116.873 56.385C116.532 55.7107 116.362 54.9229 116.362 54.0213C116.362 53.1198 116.532 52.3301 116.873 51.652C117.218 50.974 117.703 50.4475 118.328 50.0725C118.953 49.6975 119.691 49.51 120.543 49.51C121.396 49.51 122.134 49.6975 122.759 50.0725C123.384 50.4475 123.867 50.974 124.208 51.652C124.553 52.3301 124.725 53.1198 124.725 54.0213C124.725 54.9229 124.553 55.7107 124.208 56.385C123.867 57.0592 123.384 57.5838 122.759 57.9588C122.134 58.3338 121.396 58.5213 120.543 58.5213ZM120.555 56.8736C121.017 56.8736 121.403 56.7467 121.714 56.4929C122.025 56.2354 122.256 55.8907 122.407 55.4588C122.562 55.027 122.64 54.546 122.64 54.0157C122.64 53.4816 122.562 52.9986 122.407 52.5668C122.256 52.1312 122.025 51.7846 121.714 51.527C121.403 51.2695 121.017 51.1407 120.555 51.1407C120.081 51.1407 119.687 51.2695 119.373 51.527C119.062 51.7846 118.829 52.1312 118.674 52.5668C118.523 52.9986 118.447 53.4816 118.447 54.0157C118.447 54.546 118.523 55.027 118.674 55.4588C118.829 55.8907 119.062 56.2354 119.373 56.4929C119.687 56.7467 120.081 56.8736 120.555 56.8736ZM128.528 46.7145V58.3509H126.471V46.7145H128.528ZM134.45 58.5213C133.597 58.5213 132.859 58.3338 132.234 57.9588C131.609 57.5838 131.124 57.0592 130.779 56.385C130.438 55.7107 130.268 54.9229 130.268 54.0213C130.268 53.1198 130.438 52.3301 130.779 51.652C131.124 50.974 131.609 50.4475 132.234 50.0725C132.859 49.6975 133.597 49.51 134.45 49.51C135.302 49.51 136.041 49.6975 136.666 50.0725C137.291 50.4475 137.774 50.974 138.114 51.652C138.459 52.3301 138.632 53.1198 138.632 54.0213C138.632 54.9229 138.459 55.7107 138.114 56.385C137.774 57.0592 137.291 57.5838 136.666 57.9588C136.041 58.3338 135.302 58.5213 134.45 58.5213ZM134.461 56.8736C134.923 56.8736 135.31 56.7467 135.62 56.4929C135.931 56.2354 136.162 55.8907 136.313 55.4588C136.469 55.027 136.546 54.546 136.546 54.0157C136.546 53.4816 136.469 52.9986 136.313 52.5668C136.162 52.1312 135.931 51.7846 135.62 51.527C135.31 51.2695 134.923 51.1407 134.461 51.1407C133.988 51.1407 133.594 51.2695 133.279 51.527C132.969 51.7846 132.736 52.1312 132.58 52.5668C132.429 52.9986 132.353 53.4816 132.353 54.0157C132.353 54.546 132.429 55.027 132.58 55.4588C132.736 55.8907 132.969 56.2354 133.279 56.4929C133.594 56.7467 133.988 56.8736 134.461 56.8736ZM144.173 61.8054C143.434 61.8054 142.8 61.7051 142.269 61.5043C141.739 61.3073 141.313 61.0422 140.991 60.7088C140.669 60.3755 140.445 60.0062 140.32 59.6009L142.173 59.152C142.256 59.3225 142.377 59.491 142.536 59.6577C142.695 59.8282 142.909 59.9683 143.178 60.0782C143.451 60.1918 143.794 60.2486 144.207 60.2486C144.79 60.2486 145.273 60.1066 145.656 59.8225C146.038 59.5422 146.23 59.0801 146.23 58.4361V56.7827H146.127C146.021 56.9948 145.866 57.2126 145.661 57.4361C145.461 57.6596 145.194 57.8471 144.86 57.9986C144.531 58.1501 144.116 58.2259 143.616 58.2259C142.945 58.2259 142.337 58.0687 141.792 57.7543C141.25 57.4361 140.819 56.9626 140.497 56.3338C140.178 55.7013 140.019 54.9096 140.019 53.9588C140.019 53.0005 140.178 52.1918 140.497 51.5327C140.819 50.8698 141.252 50.3679 141.798 50.027C142.343 49.6823 142.951 49.51 143.622 49.51C144.133 49.51 144.553 49.5971 144.883 49.7713C145.216 49.9418 145.481 50.1482 145.678 50.3907C145.875 50.6293 146.025 50.8547 146.127 51.0668H146.241V49.6236H148.269V58.4929C148.269 59.2391 148.091 59.8566 147.735 60.3452C147.379 60.8338 146.892 61.1994 146.275 61.4418C145.658 61.6842 144.957 61.8054 144.173 61.8054ZM144.19 56.6123C144.625 56.6123 144.997 56.5062 145.303 56.2941C145.61 56.082 145.843 55.777 146.002 55.3793C146.161 54.9816 146.241 54.5043 146.241 53.9475C146.241 53.3982 146.161 52.9172 146.002 52.5043C145.847 52.0914 145.616 51.7713 145.309 51.5441C145.006 51.313 144.633 51.1975 144.19 51.1975C143.731 51.1975 143.349 51.3168 143.042 51.5554C142.735 51.7941 142.504 52.1217 142.349 52.5384C142.194 52.9513 142.116 53.421 142.116 53.9475C142.116 54.4816 142.194 54.9494 142.349 55.3509C142.508 55.7486 142.741 56.0592 143.048 56.2827C143.358 56.5024 143.739 56.6123 144.19 56.6123ZM150.377 58.3509V49.6236H152.434V58.3509H150.377ZM151.411 48.385C151.086 48.385 150.805 48.277 150.57 48.0611C150.336 47.8414 150.218 47.5782 150.218 47.2713C150.218 46.9607 150.336 46.6975 150.57 46.4816C150.805 46.2619 151.086 46.152 151.411 46.152C151.741 46.152 152.021 46.2619 152.252 46.4816C152.487 46.6975 152.605 46.9607 152.605 47.2713C152.605 47.5782 152.487 47.8414 152.252 48.0611C152.021 48.277 151.741 48.385 151.411 48.385ZM158.413 58.5213C157.538 58.5213 156.782 58.3395 156.146 57.9759C155.513 57.6085 155.026 57.0895 154.685 56.4191C154.345 55.7448 154.174 54.9513 154.174 54.0384C154.174 53.1407 154.345 52.3528 154.685 51.6748C155.03 50.9929 155.511 50.4626 156.129 50.0838C156.746 49.7013 157.471 49.51 158.305 49.51C158.843 49.51 159.35 49.5971 159.828 49.7713C160.309 49.9418 160.733 50.207 161.1 50.5668C161.471 50.9266 161.763 51.385 161.975 51.9418C162.187 52.4948 162.293 53.1539 162.293 53.9191V54.5498H155.14V53.1634H160.322C160.318 52.7695 160.233 52.4191 160.066 52.1123C159.9 51.8016 159.667 51.5573 159.367 51.3793C159.072 51.2013 158.727 51.1123 158.333 51.1123C157.913 51.1123 157.543 51.2145 157.225 51.4191C156.907 51.6198 156.659 51.885 156.481 52.2145C156.307 52.5403 156.218 52.8982 156.214 53.2884V54.4986C156.214 55.0062 156.307 55.4418 156.492 55.8054C156.678 56.1653 156.937 56.4418 157.271 56.635C157.604 56.8244 157.994 56.9191 158.441 56.9191C158.74 56.9191 159.011 56.8774 159.254 56.7941C159.496 56.707 159.706 56.5801 159.884 56.4134C160.062 56.2467 160.197 56.0403 160.288 55.7941L162.208 56.01C162.087 56.5176 161.856 56.9607 161.515 57.3395C161.178 57.7145 160.746 58.0062 160.22 58.2145C159.693 58.4191 159.091 58.5213 158.413 58.5213ZM170.931 51.9304L169.056 52.135C169.003 51.9456 168.91 51.7676 168.778 51.6009C168.649 51.4342 168.475 51.2998 168.255 51.1975C168.035 51.0952 167.766 51.0441 167.448 51.0441C167.02 51.0441 166.66 51.1369 166.369 51.3225C166.081 51.5081 165.939 51.7486 165.943 52.0441C165.939 52.2979 166.032 52.5043 166.221 52.6634C166.414 52.8225 166.732 52.9532 167.176 53.0554L168.664 53.3736C169.49 53.5516 170.104 53.8338 170.505 54.2202C170.91 54.6066 171.115 55.1123 171.119 55.7373C171.115 56.2865 170.954 56.7713 170.636 57.1918C170.321 57.6085 169.884 57.9342 169.323 58.1691C168.763 58.4039 168.119 58.5213 167.391 58.5213C166.323 58.5213 165.463 58.2979 164.812 57.8509C164.16 57.4001 163.772 56.7732 163.647 55.9702L165.653 55.777C165.744 56.171 165.937 56.4683 166.232 56.6691C166.528 56.8698 166.912 56.9702 167.386 56.9702C167.874 56.9702 168.266 56.8698 168.562 56.6691C168.861 56.4683 169.011 56.2202 169.011 55.9248C169.011 55.6748 168.914 55.4683 168.721 55.3054C168.532 55.1426 168.236 55.0176 167.835 54.9304L166.346 54.6179C165.509 54.4437 164.89 54.1501 164.488 53.7373C164.087 53.3206 163.888 52.7941 163.891 52.1577C163.888 51.6198 164.034 51.1539 164.329 50.76C164.628 50.3623 165.043 50.0554 165.573 49.8395C166.107 49.6198 166.723 49.51 167.42 49.51C168.443 49.51 169.248 49.7278 169.835 50.1634C170.426 50.599 170.791 51.188 170.931 51.9304Z" fill="black"/>
</svg>
