<svg width="285" height="29" viewBox="0 0 285 29" fill="none" xmlns="http://www.w3.org/2000/svg">
<rect x="0.25" y="8.48529" width="40.4581" height="19.2647" rx="1.75" fill="#88FC85" stroke="black" stroke-width="0.5"/>
<rect x="0.25" y="5.19119" width="40.4581" height="19.2647" rx="1.75" fill="#88FC85" stroke="black" stroke-width="0.5"/>
<rect x="0.25" y="1.89706" width="40.4581" height="19.2647" rx="1.75" fill="#88FC85" stroke="black" stroke-width="0.5"/>
<ellipse cx="20.4791" cy="11.5294" rx="6.82635" ry="6.58824" fill="white"/>
<path d="M20.222 15.8503V6.75937H20.8044V15.8503H20.222ZM21.9017 9.66776C21.8686 9.35762 21.7289 9.11615 21.4827 8.94332C21.2388 8.7705 20.9216 8.68409 20.531 8.68409C20.2563 8.68409 20.0208 8.72552 19.8243 8.80838C19.6278 8.89124 19.4775 9.00369 19.3733 9.14574C19.2691 9.28778 19.2159 9.44995 19.2135 9.63224C19.2135 9.78376 19.2478 9.91515 19.3165 10.0264C19.3875 10.1377 19.4834 10.2324 19.6041 10.3105C19.7249 10.3863 19.8586 10.4502 20.0054 10.5023C20.1522 10.5544 20.3001 10.5982 20.4493 10.6337L21.1311 10.8041C21.4057 10.868 21.6697 10.9545 21.923 11.0634C22.1787 11.1723 22.4071 11.3096 22.6084 11.4753C22.812 11.641 22.973 11.8411 23.0913 12.0754C23.2097 12.3098 23.2689 12.5844 23.2689 12.8993C23.2689 13.3254 23.16 13.7007 22.9422 14.025C22.7244 14.347 22.4095 14.5991 21.9976 14.7814C21.588 14.9613 21.092 15.0513 20.5097 15.0513C19.9438 15.0513 19.4526 14.9637 19.0359 14.7885C18.6216 14.6133 18.2973 14.3576 18.0629 14.0214C17.8309 13.6853 17.7054 13.2757 17.6865 12.7928H18.9827C19.0016 13.0461 19.0797 13.2568 19.217 13.4249C19.3544 13.5929 19.5331 13.7184 19.7533 13.8013C19.9758 13.8841 20.2244 13.9256 20.499 13.9256C20.7855 13.9256 21.0364 13.883 21.2518 13.7977C21.4696 13.7101 21.6401 13.5894 21.7632 13.4355C21.8863 13.2793 21.9491 13.097 21.9514 12.8886C21.9491 12.6992 21.8934 12.543 21.7845 12.4199C21.6756 12.2944 21.5229 12.1902 21.3264 12.1074C21.1323 12.0222 20.905 11.9464 20.6446 11.8801L19.8172 11.667C19.2182 11.5132 18.7447 11.28 18.3967 10.9675C18.0511 10.6526 17.8783 10.2348 17.8783 9.71392C17.8783 9.28542 17.9943 8.91018 18.2263 8.58821C18.4607 8.26624 18.7791 8.01648 19.1815 7.83892C19.584 7.659 20.0397 7.56903 20.5487 7.56903C21.0648 7.56903 21.517 7.659 21.9053 7.83892C22.2959 8.01648 22.6025 8.26387 22.825 8.58111C23.0475 8.89597 23.1624 9.25819 23.1695 9.66776H21.9017Z" fill="black"/>
<path d="M50.8121 23V5.54545H58.0905C59.3973 5.54545 60.491 5.73011 61.3717 6.09943C62.2581 6.46875 62.9228 6.98579 63.366 7.65057C63.8149 8.31534 64.0393 9.08523 64.0393 9.96023C64.0393 10.625 63.9001 11.2188 63.6217 11.7415C63.3433 12.2585 62.9598 12.6875 62.4711 13.0284C61.9825 13.3693 61.4172 13.608 60.7751 13.7443V13.9148C61.4797 13.9489 62.1302 14.1392 62.7268 14.4858C63.3291 14.8324 63.8121 15.3153 64.1757 15.9347C64.5393 16.5483 64.7211 17.2756 64.7211 18.1165C64.7211 19.054 64.4825 19.892 64.0052 20.6307C63.528 21.3636 62.8376 21.9432 61.9342 22.3693C61.0308 22.7898 59.9342 23 58.6444 23H50.8121ZM55.0308 19.5994H57.6388C58.5535 19.5994 59.2268 19.4261 59.6586 19.0795C60.0961 18.733 60.3149 18.25 60.3149 17.6307C60.3149 17.1818 60.2098 16.7955 59.9996 16.4716C59.7893 16.142 59.491 15.8892 59.1047 15.7131C58.7183 15.5312 58.2552 15.4403 57.7155 15.4403H55.0308V19.5994ZM55.0308 12.7216H57.366C57.8263 12.7216 58.2353 12.6449 58.5933 12.4915C58.9513 12.3381 59.2297 12.1165 59.4285 11.8267C59.6331 11.5369 59.7353 11.1875 59.7353 10.7784C59.7353 10.1932 59.528 9.73295 59.1132 9.39773C58.6984 9.0625 58.1388 8.89489 57.4342 8.89489H55.0308V12.7216ZM75.1956 17.3494V9.90909H79.3547V23H75.3831V20.5625H75.2467C74.9569 21.3636 74.4626 22 73.7638 22.4716C73.0706 22.9375 72.2325 23.1705 71.2496 23.1705C70.3575 23.1705 69.5734 22.9659 68.8973 22.5568C68.2211 22.1477 67.6956 21.5767 67.3206 20.8438C66.9456 20.1051 66.7552 19.2415 66.7496 18.2528V9.90909H70.9172V17.4347C70.9228 18.1449 71.1103 18.7045 71.4797 19.1136C71.849 19.5227 72.3518 19.7273 72.9882 19.7273C73.403 19.7273 73.7751 19.6364 74.1047 19.4545C74.4399 19.267 74.7041 18.9972 74.8973 18.6449C75.0961 18.2869 75.1956 17.8551 75.1956 17.3494ZM86.7886 23.1875C85.8227 23.1875 84.9449 22.9375 84.1551 22.4375C83.3653 21.9375 82.7346 21.1875 82.263 20.1875C81.7915 19.1875 81.5557 17.946 81.5557 16.4631C81.5557 14.9233 81.8 13.6562 82.2886 12.6619C82.7772 11.6676 83.4165 10.9318 84.2062 10.4545C85.0017 9.97727 85.8568 9.73864 86.7716 9.73864C87.4591 9.73864 88.0471 9.85795 88.5358 10.0966C89.0244 10.3295 89.4278 10.6307 89.746 11C90.0642 11.3693 90.3057 11.7528 90.4704 12.1506H90.5557V5.54545H94.7233V23H90.5983V20.8778H90.4704C90.2943 21.2812 90.0443 21.6591 89.7204 22.0114C89.3966 22.3636 88.9903 22.6477 88.5017 22.8636C88.0187 23.0795 87.4477 23.1875 86.7886 23.1875ZM88.2375 19.9403C88.7432 19.9403 89.175 19.7983 89.5329 19.5142C89.8909 19.2244 90.1665 18.8182 90.3596 18.2955C90.5528 17.7727 90.6494 17.1591 90.6494 16.4545C90.6494 15.7386 90.5528 15.1222 90.3596 14.6051C90.1721 14.0881 89.8966 13.6903 89.5329 13.4119C89.175 13.1335 88.7432 12.9943 88.2375 12.9943C87.7204 12.9943 87.2829 13.1364 86.925 13.4205C86.567 13.7045 86.2943 14.1051 86.1068 14.6222C85.925 15.1392 85.8341 15.75 85.8341 16.4545C85.8341 17.1591 85.9278 17.7727 86.1153 18.2955C86.3028 18.8182 86.5727 19.2244 86.925 19.5142C87.2829 19.7983 87.7204 19.9403 88.2375 19.9403ZM103.461 28.1818C102.217 28.1818 101.152 28.0085 100.265 27.6619C99.3788 27.3153 98.6828 26.8409 98.1771 26.2386C97.6714 25.6364 97.3674 24.9545 97.2652 24.1932L101.211 23.9716C101.285 24.2386 101.421 24.4716 101.62 24.6705C101.825 24.8693 102.089 25.0227 102.413 25.1307C102.742 25.2386 103.129 25.2926 103.572 25.2926C104.271 25.2926 104.848 25.1222 105.302 24.7812C105.762 24.446 105.992 23.858 105.992 23.017V20.7159H105.848C105.683 21.1193 105.433 21.4801 105.098 21.7983C104.762 22.1165 104.345 22.3665 103.845 22.5483C103.35 22.7301 102.782 22.821 102.14 22.821C101.186 22.821 100.311 22.5994 99.5152 22.1562C98.7254 21.7074 98.0919 21.0142 97.6146 20.0767C97.143 19.1335 96.9072 17.9205 96.9072 16.4375C96.9072 14.9091 97.1515 13.6506 97.6402 12.6619C98.1288 11.6676 98.768 10.9318 99.5578 10.4545C100.353 9.97727 101.208 9.73864 102.123 9.73864C102.811 9.73864 103.399 9.85795 103.887 10.0966C104.382 10.3295 104.788 10.6307 105.106 11C105.424 11.3693 105.666 11.7528 105.831 12.1506H105.95V9.90909H110.1V23.0511C110.1 24.1591 109.822 25.0938 109.265 25.8551C108.708 26.6165 107.93 27.1932 106.93 27.5852C105.93 27.983 104.774 28.1818 103.461 28.1818ZM103.589 19.7869C104.095 19.7869 104.527 19.6534 104.884 19.3864C105.242 19.1193 105.518 18.7358 105.711 18.2358C105.904 17.7358 106.001 17.1364 106.001 16.4375C106.001 15.7273 105.904 15.1165 105.711 14.6051C105.524 14.0881 105.248 13.6903 104.884 13.4119C104.527 13.1335 104.095 12.9943 103.589 12.9943C103.072 12.9943 102.634 13.1364 102.277 13.4205C101.919 13.7045 101.646 14.1051 101.458 14.6222C101.277 15.1335 101.186 15.7386 101.186 16.4375C101.186 17.1364 101.279 17.7358 101.467 18.2358C101.654 18.7358 101.924 19.1193 102.277 19.3864C102.634 19.6534 103.072 19.7869 103.589 19.7869ZM118.877 23.2472C117.507 23.2472 116.326 22.9773 115.331 22.4375C114.343 21.892 113.581 21.1165 113.047 20.1108C112.519 19.0994 112.255 17.8977 112.255 16.5057C112.255 15.1534 112.522 13.9716 113.056 12.9602C113.59 11.9432 114.343 11.1534 115.314 10.5909C116.286 10.0227 117.431 9.73864 118.749 9.73864C119.681 9.73864 120.533 9.88352 121.306 10.1733C122.078 10.4631 122.746 10.892 123.308 11.4602C123.871 12.0284 124.308 12.7301 124.621 13.5653C124.933 14.3949 125.09 15.3466 125.09 16.4205V17.4602H113.712V15.0398H121.212C121.206 14.5966 121.101 14.2017 120.897 13.8551C120.692 13.5085 120.411 13.2386 120.053 13.0455C119.701 12.8466 119.294 12.7472 118.834 12.7472C118.368 12.7472 117.951 12.8523 117.581 13.0625C117.212 13.267 116.919 13.5483 116.703 13.9062C116.487 14.2585 116.374 14.6591 116.362 15.108V17.571C116.362 18.1051 116.468 18.5739 116.678 18.9773C116.888 19.375 117.186 19.6847 117.573 19.9062C117.959 20.1278 118.419 20.2386 118.953 20.2386C119.323 20.2386 119.658 20.1875 119.959 20.0852C120.26 19.983 120.519 19.8324 120.735 19.6335C120.951 19.4347 121.112 19.1903 121.22 18.9006L125.047 19.0114C124.888 19.8693 124.539 20.6165 123.999 21.2528C123.465 21.8835 122.763 22.375 121.894 22.7273C121.024 23.0739 120.019 23.2472 118.877 23.2472ZM134.608 9.90909V12.9773H126.349V9.90909H134.608ZM128.079 6.77273H132.247V18.8835C132.247 19.1392 132.286 19.3466 132.366 19.5057C132.451 19.6591 132.573 19.7699 132.733 19.8381C132.892 19.9006 133.082 19.9318 133.304 19.9318C133.463 19.9318 133.63 19.9176 133.806 19.8892C133.988 19.8551 134.125 19.8267 134.215 19.804L134.846 22.8125C134.647 22.8693 134.366 22.9403 134.002 23.0256C133.644 23.1108 133.215 23.1648 132.715 23.1875C131.738 23.233 130.9 23.1193 130.201 22.8466C129.508 22.5682 128.977 22.1364 128.608 21.5511C128.244 20.9659 128.068 20.2301 128.079 19.3438V6.77273ZM137.015 23V5.54545H141.234V12.5511H148.112V5.54545H152.322V23H148.112V15.9858H141.234V23H137.015ZM161.088 23.2472C159.718 23.2472 158.536 22.9773 157.542 22.4375C156.554 21.892 155.792 21.1165 155.258 20.1108C154.73 19.0994 154.465 17.8977 154.465 16.5057C154.465 15.1534 154.733 13.9716 155.267 12.9602C155.801 11.9432 156.554 11.1534 157.525 10.5909C158.497 10.0227 159.642 9.73864 160.96 9.73864C161.892 9.73864 162.744 9.88352 163.517 10.1733C164.289 10.4631 164.957 10.892 165.519 11.4602C166.082 12.0284 166.519 12.7301 166.832 13.5653C167.144 14.3949 167.301 15.3466 167.301 16.4205V17.4602H155.923V15.0398H163.423C163.417 14.5966 163.312 14.2017 163.108 13.8551C162.903 13.5085 162.622 13.2386 162.264 13.0455C161.911 12.8466 161.505 12.7472 161.045 12.7472C160.579 12.7472 160.161 12.8523 159.792 13.0625C159.423 13.267 159.13 13.5483 158.914 13.9062C158.698 14.2585 158.585 14.6591 158.573 15.108V17.571C158.573 18.1051 158.679 18.5739 158.889 18.9773C159.099 19.375 159.397 19.6847 159.784 19.9062C160.17 20.1278 160.63 20.2386 161.164 20.2386C161.534 20.2386 161.869 20.1875 162.17 20.0852C162.471 19.983 162.73 19.8324 162.946 19.6335C163.161 19.4347 163.323 19.1903 163.431 18.9006L167.258 19.0114C167.099 19.8693 166.75 20.6165 166.21 21.2528C165.676 21.8835 164.974 22.375 164.105 22.7273C163.235 23.0739 162.23 23.2472 161.088 23.2472ZM173.597 5.54545V23H169.429V5.54545H173.597ZM176.25 27.9091V9.90909H180.375V12.1506H180.502C180.673 11.7528 180.914 11.3693 181.227 11C181.545 10.6307 181.948 10.3295 182.437 10.0966C182.931 9.85795 183.522 9.73864 184.21 9.73864C185.119 9.73864 185.968 9.97727 186.758 10.4545C187.554 10.9318 188.196 11.6676 188.684 12.6619C189.173 13.6562 189.417 14.9233 189.417 16.4631C189.417 17.946 189.181 19.1875 188.71 20.1875C188.244 21.1875 187.613 21.9375 186.818 22.4375C186.028 22.9375 185.15 23.1875 184.184 23.1875C183.525 23.1875 182.954 23.0795 182.471 22.8636C181.988 22.6477 181.582 22.3636 181.252 22.0114C180.929 21.6591 180.679 21.2812 180.502 20.8778H180.417V27.9091H176.25ZM180.332 16.4545C180.332 17.1591 180.426 17.7727 180.613 18.2955C180.806 18.8182 181.082 19.2244 181.44 19.5142C181.804 19.7983 182.238 19.9403 182.744 19.9403C183.255 19.9403 183.69 19.7983 184.048 19.5142C184.406 19.2244 184.676 18.8182 184.858 18.2955C185.045 17.7727 185.139 17.1591 185.139 16.4545C185.139 15.75 185.045 15.1392 184.858 14.6222C184.676 14.1051 184.406 13.7045 184.048 13.4205C183.696 13.1364 183.261 12.9943 182.744 12.9943C182.233 12.9943 181.798 13.1335 181.44 13.4119C181.082 13.6903 180.806 14.0881 180.613 14.6051C180.426 15.1222 180.332 15.7386 180.332 16.4545ZM197.72 23.2472C196.351 23.2472 195.169 22.9773 194.175 22.4375C193.186 21.892 192.425 21.1165 191.891 20.1108C191.362 19.0994 191.098 17.8977 191.098 16.5057C191.098 15.1534 191.365 13.9716 191.899 12.9602C192.433 11.9432 193.186 11.1534 194.158 10.5909C195.13 10.0227 196.274 9.73864 197.593 9.73864C198.524 9.73864 199.377 9.88352 200.149 10.1733C200.922 10.4631 201.59 10.892 202.152 11.4602C202.715 12.0284 203.152 12.7301 203.465 13.5653C203.777 14.3949 203.933 15.3466 203.933 16.4205V17.4602H192.556V15.0398H200.056C200.05 14.5966 199.945 14.2017 199.74 13.8551C199.536 13.5085 199.255 13.2386 198.897 13.0455C198.544 12.8466 198.138 12.7472 197.678 12.7472C197.212 12.7472 196.794 12.8523 196.425 13.0625C196.056 13.267 195.763 13.5483 195.547 13.9062C195.331 14.2585 195.218 14.6591 195.206 15.108V17.571C195.206 18.1051 195.311 18.5739 195.522 18.9773C195.732 19.375 196.03 19.6847 196.416 19.9062C196.803 20.1278 197.263 20.2386 197.797 20.2386C198.166 20.2386 198.502 20.1875 198.803 20.0852C199.104 19.983 199.362 19.8324 199.578 19.6335C199.794 19.4347 199.956 19.1903 200.064 18.9006L203.891 19.0114C203.732 19.8693 203.382 20.6165 202.843 21.2528C202.308 21.8835 201.607 22.375 200.737 22.7273C199.868 23.0739 198.862 23.2472 197.72 23.2472ZM206.062 23V9.90909H210.11V12.2955H210.247C210.485 11.4318 210.875 10.7898 211.414 10.3693C211.954 9.94318 212.582 9.73011 213.298 9.73011C213.491 9.73011 213.69 9.74432 213.894 9.77273C214.099 9.79545 214.289 9.83239 214.465 9.88352V13.5057C214.267 13.4375 214.005 13.3835 213.681 13.3438C213.363 13.304 213.079 13.2841 212.829 13.2841C212.335 13.2841 211.889 13.3949 211.491 13.6165C211.099 13.8324 210.789 14.1364 210.562 14.5284C210.34 14.9148 210.23 15.3693 210.23 15.892V23H206.062Z" fill="#ECECEC"/>
</svg>
