<?xml version="1.0" standalone="no"?>
<!DOCTYPE svg PUBLIC "-//W3C//DTD SVG 20010904//EN"
 "http://www.w3.org/TR/2001/REC-SVG-20010904/DTD/svg10.dtd">
<svg version="1.0" xmlns="http://www.w3.org/2000/svg"
 width="512.000000pt" height="512.000000pt" viewBox="0 0 512.000000 512.000000"
 preserveAspectRatio="xMidYMid meet">

<g transform="translate(0.000000,512.000000) scale(0.100000,-0.100000)"
fill="#000000" stroke="none">
<path d="M2020 3539 c-136 -75 -230 -163 -515 -484 -256 -287 -1285 -1494
-1285 -1507 0 -2 1053 -3 2340 -3 1626 0 2339 3 2336 10 -5 15 -282 433 -345
522 -81 115 -127 139 -396 209 -265 69 -353 122 -528 323 -206 234 -262 261
-410 198 l-48 -20 -183 181 c-110 110 -197 188 -219 197 -47 19 -100 19 -139
-1 l-31 -16 -196 195 c-108 107 -207 202 -221 211 -38 25 -97 20 -160 -15z
m165 -100 c65 -41 193 -173 233 -241 31 -51 40 -90 57 -221 5 -35 16 -58 45
-92 42 -48 47 -67 53 -185 6 -113 62 -210 121 -210 10 0 50 9 89 21 89 26 123
20 182 -34 39 -35 50 -53 66 -112 10 -38 25 -75 32 -82 7 -8 46 -27 86 -43 97
-40 127 -63 156 -121 44 -85 92 -90 82 -8 -11 95 -70 169 -168 212 -44 19 -62
35 -91 78 -19 30 -45 82 -58 116 -12 34 -30 69 -39 77 -9 9 -53 27 -97 41 -43
15 -94 38 -112 51 -36 28 -74 96 -108 198 -38 111 -30 156 27 156 34 0 45 -9
304 -250 423 -394 455 -421 484 -418 44 5 39 42 -20 138 -93 152 -102 170 -86
170 33 0 132 -109 243 -268 149 -213 209 -289 243 -307 15 -7 106 -30 201 -50
126 -26 195 -45 246 -70 77 -37 164 -108 164 -132 0 -20 -59 -15 -245 21 -71
14 -173 29 -226 32 -95 7 -96 7 -180 -31 -276 -122 -379 -123 -606 -5 -149 78
-165 78 -292 5 -122 -69 -157 -83 -224 -91 -69 -8 -149 14 -206 58 -24 18 -75
75 -114 127 -40 52 -83 103 -97 113 -14 10 -58 27 -98 38 -40 11 -84 28 -98
36 -37 25 -113 131 -155 218 -39 80 -47 110 -30 120 4 3 83 -32 174 -78 188
-95 331 -146 406 -146 45 0 53 3 62 24 40 86 -68 200 -249 266 -72 26 -132 76
-132 110 0 21 25 50 108 123 49 44 44 79 -20 144 -49 50 -52 55 -56 115 -2 35
-11 70 -19 79 -17 20 -68 34 -183 49 -107 15 -150 32 -150 61 0 29 84 153 124
184 69 53 105 56 171 14z"/>
</g>
</svg>
