<?xml version="1.0" encoding="UTF-8" standalone="no"?>
<!-- Created with Inkscape (http://www.inkscape.org/) -->

<svg
   xmlns:dc="http://purl.org/dc/elements/1.1/"
   xmlns:cc="http://creativecommons.org/ns#"
   xmlns:rdf="http://www.w3.org/1999/02/22-rdf-syntax-ns#"
   xmlns:svg="http://www.w3.org/2000/svg"
   xmlns="http://www.w3.org/2000/svg"
   xmlns:sodipodi="http://sodipodi.sourceforge.net/DTD/sodipodi-0.dtd"
   xmlns:inkscape="http://www.inkscape.org/namespaces/inkscape"
   version="1.1"
   id="svg2"
   width="1736"
   height="563"
   viewBox="0 0 1736 563"
   sodipodi:docname="master-trivia-logo.svg"
   inkscape:version="0.92.4 (5da689c313, 2019-01-14)">
  <metadata
     id="metadata8">
    <rdf:RDF>
      <cc:Work
         rdf:about="">
        <dc:format>image/svg+xml</dc:format>
        <dc:type
           rdf:resource="http://purl.org/dc/dcmitype/StillImage" />
        <dc:title></dc:title>
      </cc:Work>
    </rdf:RDF>
  </metadata>
  <defs
     id="defs6" />
  <sodipodi:namedview
     pagecolor="#ffffff"
     bordercolor="#666666"
     borderopacity="1"
     objecttolerance="10"
     gridtolerance="10"
     guidetolerance="10"
     inkscape:pageopacity="0"
     inkscape:pageshadow="2"
     inkscape:window-width="1920"
     inkscape:window-height="1027"
     id="namedview4"
     showgrid="false"
     inkscape:zoom="0.64"
     inkscape:cx="961.2932"
     inkscape:cy="161.93517"
     inkscape:window-x="-8"
     inkscape:window-y="-8"
     inkscape:window-maximized="1"
     inkscape:current-layer="svg2" />
  <g
     id="g817">
    <path
       style="fill:#fcfcfc"
       d="M 0,281.5 V 0 h 868 868 V 281.5 563 H 868 0 Z"
       id="path833"
       inkscape:connector-curvature="0" />
    <path
       style="fill:#a4a4a4"
       d="M 0,281.5 V 0 h 868 868 V 281.5 563 H 868 0 Z M 211.24477,411.25 211.5,319.5 l 35,-0.5 35,-0.5 v -33 -33 H 172 62.5 l -0.263481,33.25 -0.26348,33.25 h 34.478297 c 33.064224,0 34.520754,0.0793 35.513484,1.93426 0.69159,1.29226 1.03518,31.82775 1.03518,92 V 503 h 38.99477 38.99476 z M 387,462.5 l 0.5,-40 14.1055,-0.27658 c 12.05216,-0.23631 14.3085,-0.0383 15.5,1.36 0.76697,0.90011 10.1695,19.02457 20.8945,40.27657 l 19.5,38.64001 38.93808,0.26192 c 21.41595,0.14405 39.24114,-0.0809 39.61155,-0.5 0.37041,-0.41906 -4.46675,-10.21192 -10.74925,-21.76192 -31.874,-58.5985 -39.21425,-72.55987 -38.76223,-73.72682 0.27124,-0.70025 2.06845,-2.34871 3.99379,-3.66324 5.96565,-4.07306 15.40607,-14.28377 19.97968,-21.60994 9.38209,-15.02852 14.06325,-38.33745 11.69795,-58.24767 -2.56516,-21.59263 -7.51841,-32.77312 -20.10102,-45.37203 -7.43472,-7.44435 -10.04029,-9.31522 -19.10855,-13.72046 -12.2283,-5.94034 -25.66524,-9.48514 -42.18949,-11.13002 -7.37937,-0.73457 -31.46928,-1.0223 -69.31051,-0.82786 l -58,0.29804 -0.25726,124 c -0.14149,68.2 -0.041,124.56813 0.22342,125.2625 0.37744,0.99137 8.27148,1.20613 36.75725,1 L 386.5,502.5 Z m 0.49061,-98.66388 c -0.28893,-0.75293 -0.40501,-13.06157 -0.25797,-27.35254 L 387.5,310.5 408,310.5757 c 16.7224,0.0617 21.31658,0.38783 24.93133,1.76962 10.40854,3.9788 15.08455,10.55708 15.85156,22.30023 0.94026,14.39567 -3.74447,23.23651 -14.55705,27.4715 -5.09116,1.99407 -7.96957,2.28951 -25.96788,2.66535 -16.49917,0.34454 -20.33917,0.16957 -20.76735,-0.94626 z M 641.5,377.5 v -125 h -39 -39 l -0.25726,124 c -0.14149,68.2 -0.0411,124.5678 0.22314,125.26177 0.37768,0.99201 8.77052,1.2058 39.25725,1 L 641.5,502.5 Z m 244.62359,1 c 20.78881,-68.2 37.81552,-124.56749 37.83713,-125.26109 0.0311,-0.9991 -8.51324,-1.20685 -41.12759,-1 L 841.66625,252.5 840.91196,255 c -0.41485,1.375 -9.61621,38.41059 -20.44745,82.30131 -16.3793,66.3727 -19.96282,79.74937 -21.2956,79.4927 -1.24622,-0.24 -6.09931,-18.42395 -21.83182,-81.8013 C 766.21092,290.17172 757.08346,253.1625 757.05385,252.75 756.97656,251.67358 673,251.81162 673,252.88816 c 0,0.48849 9.62933,32.77599 21.39851,71.75 11.76918,38.97401 28.49694,94.48684 37.17281,123.36184 8.67586,28.875 16.20509,53.06667 16.73162,53.75926 0.75167,0.98875 11.59778,1.20357 50.49007,1 L 848.32575,502.5 Z m 147.37641,-1 v -125 h -39 -39 l -0.25726,124 c -0.14149,68.2 -0.0411,124.5678 0.22314,125.26177 0.37768,0.99201 8.77052,1.2058 39.25725,1 L 1033.5,502.5 Z m 110.5344,121.25 c 5.8325,-22.30226 9.3172,-34.45496 10.1793,-35.5 0.7935,-0.96188 10.2276,-1.25 40.9302,-1.25 h 39.899 l 0.9621,2.25 c 0.5292,1.2375 3.0138,9.675 5.5212,18.75 2.5075,9.075 4.7952,17.2875 5.0838,18.25 0.4881,1.62766 3.2425,1.75 39.3984,1.75 21.3804,0 39.0565,-0.3375 39.2801,-0.75 0.2236,-0.4125 -1.7822,-7.5 -4.4574,-15.75 -2.6752,-8.25 -20.7699,-64.275 -40.2104,-124.5 l -35.3464,-109.5 -49.0467,-0.25937 -49.0468,-0.25937 -9.6698,29.75937 c -5.3184,16.36765 -23.3761,71.83437 -40.1283,123.25937 -16.7521,51.425 -30.7152,94.5125 -31.029,95.75 l -0.5705,2.25 h 38.5698 38.5699 z m 27.4603,-98.75859 c -0.5896,-0.954 19.3593,-75.7778 21.5698,-80.90335 0.8894,-2.06235 1.236,-2.20729 2.391,-1 1.8456,1.92927 22.9929,79.30112 22.2229,81.3076 -0.5397,1.4066 -3.3855,1.60434 -23.088,1.60434 -14.0304,0 -22.7065,-0.37888 -23.0957,-1.00859 z M 616,232.5397 c 17.69976,-2.69876 29.62021,-7.97391 38.5,-17.03739 17.7625,-18.12994 17.92602,-52.14491 0.32674,-67.96818 -9.27535,-8.33933 -23.19052,-13.64828 -51.28782,-19.56744 -8.22859,-1.73349 -16.67451,-3.83738 -18.76872,-4.67531 -7.91121,-3.16544 -10.27269,-10.94274 -4.9414,-16.27403 6.91592,-6.91592 25.08121,-6.57288 31.31744,0.59142 0.90543,1.04018 2.49729,3.69123 3.53746,5.89123 1.62057,3.42757 2.31518,3.97658 4.85376,3.83631 13.606,-0.75175 43.15435,-3.75329 43.91786,-4.4612 0.60553,-0.56143 0.52697,-2.9279 -0.21454,-6.46311 C 659.26789,87.471141 644.90304,73.867291 622.5,67.829539 c -11.72461,-3.159853 -39.14668,-3.186754 -51.7337,-0.05075 -25.30171,6.303812 -38.92716,20.328327 -41.80543,43.029821 -1.93919,15.29479 2.60012,28.9337 12.70275,38.16693 10.04496,9.18053 20.29213,13.1525 49.026,19.00327 10.55428,2.14906 20.53947,4.60542 22.18929,5.45857 4.11783,2.12941 6.12109,5.31641 6.12109,9.73807 0,5.21777 -1.75543,8.50799 -5.92171,11.09911 -3.08833,1.92072 -4.94754,2.22133 -13.57829,2.19543 -8.34955,-0.0251 -10.69188,-0.39489 -14.19207,-2.24077 -4.80217,-2.53251 -8.52599,-7.06102 -10.26172,-12.47922 L 573.8449,178 h -23.86344 c -13.79657,0 -24.10824,0.39612 -24.44375,0.93899 -1.11866,1.81003 2.64115,16.62974 6.00529,23.67048 6.04606,12.6537 16.78904,21.50907 32.457,26.75412 13.44196,4.49986 34.77323,5.80275 52,3.17611 z M 106,191.24914 c 0.31695,-24.24736 0.8661,-38.34207 1.5,-38.5 1.24943,-0.31128 2.21402,2.60992 14.3694,43.5168 l 9.87542,33.23406 17.62759,0.27307 c 9.69517,0.1502 17.62759,0.117 17.62759,-0.0738 0,-0.19077 1.14424,-4.13865 2.54274,-8.77307 1.39851,-4.63443 6.1352,-20.57623 10.52597,-35.42623 9.08092,-30.71253 9.78483,-32.7154 11.31822,-32.20459 0.78534,0.26161 1.19018,11.60872 1.37495,38.53769 L 193.02377,230 H 215.51188 238 V 149.48466 68.969329 L 209.38935,69.234665 180.7787,69.5 l -14.45354,48 c -7.94944,26.4 -14.87464,48.4275 -15.38934,48.95 -0.59105,0.6 -1.27514,0.6 -1.85684,0 -0.50657,-0.5225 -7.40465,-22.55 -15.32908,-48.95 L 119.34184,69.5 90.670922,69.234665 62,68.969329 V 149.50417 230.039 L 83.75,229.7695 105.5,229.5 Z M 356.00506,218.25 c 1.77805,-6.4625 3.6844,-12.3125 4.23633,-13 0.75504,-0.94051 7.25639,-1.25 26.25861,-1.25 19.00309,0 25.50313,0.30944 26.25698,1.25 0.55103,0.6875 2.1925,5.525 3.64771,10.75 4.3998,15.79766 0.65794,14 29.14126,14 h 24.58883 l -0.65656,-2.25 c -0.36111,-1.2375 -4.1957,-13.275 -8.52131,-26.75 -4.32562,-13.475 -15.30333,-47.675 -24.39493,-76 -9.0916,-28.325 -16.97769,-52.5125 -17.52464,-53.75 L 418.04288,69 h -30.399 c -23.13597,0 -30.6304,0.298654 -31.36753,1.25 -0.5327,0.6875 -9.62152,28.025 -20.19737,60.75 -10.57585,32.725 -22.05685,68.05 -25.51334,78.5 -3.45648,10.45 -6.09621,19.3375 -5.86606,19.75 0.23015,0.4125 11.14065,0.75 24.24556,0.75 h 23.8271 z m 15.49437,-53.25092 c -0.34023,-0.55051 1.71442,-9.66301 4.56589,-20.25 2.85147,-10.58699 5.86352,-21.94908 6.69344,-25.24908 1.82841,-7.27025 3.56596,-9.64046 5.03381,-6.86666 1.75916,3.3243 14.32093,51.374 13.69543,52.38607 -0.8145,1.31789 -29.17338,1.29867 -29.98857,-0.0203 z M 823,170.5 l 0.5,-59 22.25,-0.26913 22.25,-0.26913 V 89.980868 69 h -70 -70 v 20.980868 20.980872 l 22.25,0.26913 22.25,0.26913 0.24925,58 c 0.13709,31.9 0.46354,58.57053 0.72546,59.26783 0.37041,0.98616 5.86935,1.20833 24.75075,1 L 822.5,229.5 Z m 233.2552,41.5 c 0.9653,-9.625 1.5419,-18.0625 1.2814,-18.75 -0.367,-0.96807 -8.5924,-1.25 -36.47,-1.25 -34.56496,0 -36.03739,-0.0769 -37.03142,-1.93426 -1.31053,-2.44876 -1.35249,-16.10094 -0.0599,-19.50064 L 984.9505,168 H 1016.9752 1049 V 149.01385 130.02771 L 1016.75,129.76385 984.5,129.5 v -11 -11 l 34.5,-0.5 34.5,-0.5 V 88 69.5 L 994.25,69.24207 935,68.98414 v 80.5158 80.5158 L 994.75,229.75787 1054.5,229.5 Z M 1171,205.2 c 0,-17.95556 0.3312,-25.13118 1.2,-26 0.7514,-0.75144 4.4881,-1.2 9.9963,-1.2 h 8.7963 l 13.0074,26 13.0074,26 h 24.9963 c 13.748,0 24.9963,-0.2548 24.9963,-0.56622 0,-0.31142 -6.4677,-12.57392 -14.3727,-27.25 -7.9049,-14.67608 -15.1237,-28.1603 -16.0418,-29.96493 l -1.6691,-3.28114 6.9095,-6.48207 c 11.6584,-10.93718 16.1318,-22.28591 16.1593,-40.99554 0.04,-27.168479 -11.6904,-42.299049 -38.4852,-49.640254 -7.5354,-2.06454 -10.5118,-2.214411 -51.25,-2.580592 L 1125,68.850496 V 149.42525 230 h 23 23 z m 0.649,-64.6724 c -0.357,-0.93014 -0.649,-8.79927 -0.649,-17.48694 0,-12.69818 0.2891,-16.03571 1.4743,-17.0193 1.05,-0.87147 5.1503,-1.11309 14.25,-0.8397 15.5357,0.46676 19.8019,2.14238 23.1703,9.10062 4.4666,9.22673 1.5478,20.87765 -6.25,24.94808 -3.5002,1.82712 -6.2592,2.22761 -17.7456,2.57595 -12.0837,0.36646 -13.6735,0.2238 -14.25,-1.27871 z"
       id="path831"
       inkscape:connector-curvature="0" />
    <path
       style="fill:#fcd415"
       d="M 0,281.5 V 0 h 868 868 V 281.5 563 H 868 0 Z m 211.75534,131.59602 c 0.18147,-64.24564 0.57546,-90.78968 1.36166,-91.737 0.87417,-1.0533 8.27,-1.38822 35.24466,-1.59602 L 282.5,319.5 v -34 -34 H 172 61.5 l -0.263112,34.23703 -0.263113,34.23702 34.763113,0.26298 L 130.5,320.5 130.74772,411 c 0.13624,49.775 0.4616,91.06767 0.72302,91.7615 0.37389,0.99231 8.96314,1.2057 40.25229,1 L 211.5,503.5 Z M 388,463.5 l 0.5,-40 13.18389,-0.27856 c 9.71845,-0.20535 13.49563,0.0575 14.36985,1 0.65229,0.70321 10.01953,18.82856 20.81611,40.27856 l 19.63015,39 40.75,0.26122 c 32.26557,0.20683 40.74957,-10e-4 40.74794,-1 -0.002,-1.20498 -3.33571,-7.4838 -35.81356,-67.45157 C 494.38297,420.90496 488,408.47866 488,407.69565 c 0,-0.783 1.836,-2.696 4.08001,-4.2511 7.95957,-5.51598 17.67511,-17.12188 22.44434,-26.81133 6.17286,-12.54115 8.52264,-22.31097 9.17159,-38.13322 C 525.40711,296.77979 507.60195,269.72889 470.5,257.68081 451.67636,251.56823 450.6608,251.5 378.5,251.5 h -66 l -0.25724,125 c -0.14148,68.75 -0.041,125.56799 0.2233,126.2622 0.37753,0.99163 8.47106,1.20599 37.75724,1 L 387.5,503.5 Z m 0.50013,-100.63908 c -0.29485,-0.76834 -0.41549,-12.63888 -0.26811,-26.37896 L 388.5,311.5 407,311.5194 c 21.5557,0.0226 27.55909,1.28057 34.03562,7.13173 8.95236,8.08792 9.39668,28.14892 0.81946,36.99837 -5.95859,6.1477 -11.80278,7.56005 -33.58698,8.11684 -15.87271,0.4057 -19.32553,0.24755 -19.76797,-0.90544 z M 642.5,377.5 v -126 h -40 -40 l -0.25724,125 c -0.14148,68.75 -0.0411,125.56767 0.22303,126.2615 0.37776,0.99225 8.97014,1.20568 40.25724,1 L 642.5,503.5 Z m 207.35299,123.75 c 0.6026,-1.5125 10.52369,-33.8 22.04687,-71.75 11.52318,-37.95 28.18474,-92.73233 37.02569,-121.7385 C 917.7665,278.75532 925,254.11293 925,253.00064 c 0,-2.002 -0.42505,-2.01972 -42.25,-1.76149 L 840.5,251.5 839.37912,256 c -0.61649,2.475 -9.56528,38.7 -19.88621,80.5 -10.32093,41.8 -19.14653,76.42 -19.61245,76.93333 -0.46592,0.51334 -1.07196,0.7085 -1.34676,0.43371 -0.27479,-0.2748 -9.35217,-36.4698 -20.17194,-80.43334 C 767.54199,289.47017 758.25422,252.9375 757.72228,252.25 756.97553,251.28488 747.09711,251 714.37756,251 673.41924,251 672,251.06359 672,252.89884 c 0,1.04436 6.02959,21.85686 13.3991,46.25 23.79041,78.74654 53.71771,178.02553 57.38067,190.35116 1.96141,6.6 3.99345,12.5625 4.51566,13.25 0.73741,0.97082 12.17375,1.25 51.20569,1.25 h 50.25624 z M 1034.5,377.5 v -126 h -40 -40 l -0.25724,125 c -0.14148,68.75 -0.0411,125.56767 0.22303,126.2615 0.37776,0.99225 8.97014,1.20568 40.25724,1 L 1034.5,503.5 Z m 109.2211,125.25 c 0.5312,-0.6875 3.0931,-9.3422 5.6931,-19.23267 2.5999,-9.89047 5.2004,-18.55297 5.7789,-19.25 0.8161,-0.9833 9.7569,-1.26733 39.8942,-1.26733 35.9843,0 38.9083,0.12877 39.7394,1.75 0.4934,0.9625 3.0382,9.625 5.6551,19.25 2.6169,9.625 5.2091,18.0625 5.7605,18.75 1.2682,1.5812 79.275,1.84007 80.2476,0.26631 0.3344,-0.54103 -3.2715,-13.02853 -8.0131,-27.75 C 1269.6827,323.77247 1248.6964,258.81897 1247.3901,255.25 l -1.5555,-4.25 h -49.2949 c -38.2532,0 -49.5115,0.27999 -50.2623,1.25 -0.5321,0.6875 -6.8724,19.475 -14.0896,41.75 -7.2171,22.275 -25.2868,77.84137 -40.1549,123.48083 -14.8681,45.63946 -27.0329,83.77696 -27.0329,84.75 0,1.66189 2.3575,1.76917 38.8776,1.76917 29.9202,0 39.1001,-0.288 39.8435,-1.25 z M 1173,398.01144 c 0,-1.60211 18.7696,-71.80365 20.5682,-76.92866 0.3272,-0.93233 0.835,-1.07954 1.4843,-0.43025 1.4246,1.42459 22.1483,77.2136 21.4307,78.37466 C 1216.1238,399.60866 1207.2568,400 1194.441,400 1173.7078,400 1173,399.93435 1173,398.01144 Z M 625.87613,232.08336 c 27.67942,-6.98369 43.05705,-25.5768 43.10909,-52.12326 0.0271,-13.80215 -4.6644,-25.86702 -12.86555,-33.08597 -9.96566,-8.77212 -22.52267,-13.66335 -50.9881,-19.861 -9.69736,-2.11137 -18.82586,-4.30049 -20.28554,-4.86473 -10.65641,-4.11918 -8.22552,-15.68223 3.82269,-18.18343 12.12399,-2.51693 20.60143,0.87018 24.55657,9.81142 1.05648,2.38836 2.51714,4.57128 3.2459,4.85093 2.29446,0.88047 46.94916,-3.71266 48.24743,-4.96267 1.59516,-1.53586 -0.65124,-11.51003 -4.3892,-19.488414 C 656.75272,86.542065 646.45315,76.457601 638,72.313153 c -12.9384,-6.343492 -20.42758,-7.785903 -40.5,-7.80027 -21.18222,-0.01516 -29.44263,1.473804 -42.30539,7.625676 -15.58493,7.453807 -24.98889,20.073039 -27.42764,36.805341 -2.13667,14.65965 1.53179,28.82156 9.8682,38.0957 9.29464,10.34016 22.5293,15.9321 51.96241,21.95527 10.70078,2.1898 20.78968,4.67115 22.41977,5.5141 4.44874,2.30053 6.33887,5.79854 5.70138,10.55135 -1.01297,7.5523 -5.61077,10.3242 -17.21873,10.38074 -13.37748,0.0652 -20.92294,-4.17689 -24.02113,-13.50468 l -1.65089,-4.97036 -25.16399,0.26699 L 524.5,177.5 l -0.32011,2.25423 c -0.46764,3.2932 3.43382,17.91192 6.40394,23.99553 3.224,6.60359 11.3979,15.62254 17.91617,19.76839 6.95259,4.42211 16.88743,8.19992 26.15116,9.94422 11.69159,2.20145 40.06101,1.43773 51.22497,-1.37901 z M 106.76232,193.75 c 0.2371,-33.21589 0.82334,-41.02874 2.62625,-35 0.28783,0.9625 3.9385,13.225 8.11258,27.25 4.17408,14.025 8.93822,29.8875 10.58698,35.25 l 2.99776,9.75 h 17.83461 c 13.088,0 18.09062,-0.33268 18.79653,-1.25 0.52905,-0.6875 5.36431,-16.1 10.74502,-34.25 5.3807,-18.15 10.24108,-34.125 10.80085,-35.5 l 1.01775,-2.5 0.75999,2.5 c 0.418,1.375 0.80486,17.9125 0.85968,36.75 L 192,231 H 215.5 239 V 149.5 68 H 209.53525 180.0705 l -2.87846,9.25 c -1.58315,5.0875 -7.95866,26.19495 -14.16779,46.90545 -6.20914,20.71049 -11.65523,38.24746 -12.10242,38.97103 -0.4472,0.72358 -1.09472,1.03397 -1.43893,0.68975 -0.34422,-0.34422 -7.04595,-21.93119 -14.89274,-47.97104 L 120.32327,68.5 90.980167,68.234607 c -22.80851,-0.206291 -29.52198,0.01641 -30.146324,1 -0.9285,1.462763 -1.142955,157.796283 -0.219762,160.202083 0.542218,1.413 3.26306,1.56886 23.25,1.33179 L 106.5,230.5 Z m 247.10344,35.5 c 0.51487,-0.9625 2.15493,-6.25 3.64457,-11.75 1.48964,-5.5 3.16432,-10.5625 3.7215,-11.25 1.45807,-1.7991 49.08318,-1.7991 50.52515,0 0.55103,0.6875 2.1925,5.525 3.64771,10.75 4.4039,15.81236 0.5107,14 30.07387,14 C 467.83144,231 471,230.80812 471,229.45452 471,228.6045 462.6331,201.942 452.40689,170.20452 442.18068,138.46703 430.87422,103.275 427.28143,92 423.68863,80.725 420.33969,70.7125 419.83935,69.75 419.00236,68.139907 416.42391,68 387.58726,68 c -23.88865,0 -31.57361,0.29727 -32.31471,1.25 -0.53478,0.6875 -4.37696,11.825 -8.53817,24.75 -4.16121,12.925 -15.70376,48.55909 -25.65011,79.18687 C 311.13792,203.81464 303,229.35214 303,229.93687 303,230.65932 310.99991,231 327.96482,231 c 22.75272,0 25.04776,-0.15506 25.90094,-1.75 z m 19.15111,-66.5 c 0.0297,-3.95426 12.44314,-48.17854 13.48313,-48.03501 1.05341,0.14539 13.38734,44.16646 13.45857,48.03501 0.041,2.22427 -0.11296,2.25 -13.45857,2.25 -13.33833,0 -13.4998,-0.0269 -13.48313,-2.25 z M 824,171.5 l 0.5,-59 22.25,-0.26913 22.25,-0.26913 V 89.980868 68 h -70.89301 c -63.72266,0 -70.95441,0.159987 -71.5,1.581787 -0.89519,2.332832 -0.70904,39.709353 0.20494,41.148143 0.57055,0.89817 6.70303,1.30278 22.73468,1.5 L 771.5,112.5 l 0.24925,58 c 0.13709,31.9 0.46344,58.57025 0.72522,59.26722 0.37066,0.98683 6.06855,1.2081 25.75075,1 L 823.5,230.5 Z m 231.5057,58.25 c 0.572,-1.6146 3.4867,-31.24332 3.491,-35.48768 v -3.23768 l -36.75,-0.26232 -36.75,-0.26232 V 180 169.5 l 32.25,-0.26385 32.25,-0.26386 V 149 129.02771 l -32.25,-0.26386 -32.25,-0.26385 v -10 -10 l 34.5,-0.5 34.5,-0.5 V 88 68.5 l -59.93607,-0.257942 c -47.28663,-0.203504 -60.10463,0.0075 -60.73469,1 -0.92087,1.450507 -1.13779,157.790292 -0.22225,160.176152 0.54423,1.41824 6.85473,1.58179 61.03138,1.58179 47.43663,0 60.51963,-0.26868 60.86733,-1.25 z m 116.701,1 c 0.1137,-0.1375 0.4512,-11.725 0.75,-25.75 l 0.5433,-25.5 h 8.4284 8.4285 l 12.0998,24.13032 c 6.6548,13.27168 12.7047,24.85918 13.444,25.75 1.1744,1.41505 4.5505,1.61968 26.7217,1.61968 22.004,0 25.3776,-0.20142 25.3776,-1.51516 0,-1.34312 -6.8721,-14.41436 -25.3779,-48.27046 C 1239.53,175.55729 1237,170.51031 1237,169.99886 c 0,-0.51144 3.0919,-4.02175 6.8708,-7.80069 11.5558,-11.55584 16.9651,-26.95182 15.7156,-44.72979 -1.5693,-22.327623 -11.7696,-36.692725 -31.326,-44.116494 -12.5742,-4.773232 -18.5624,-5.279398 -62.9034,-5.316998 -36.6152,-0.03105 -41.2098,0.139189 -41.75,1.546899 -0.7932,2.067031 -0.7932,157.769393 0,159.836423 0.53,1.38131 3.6352,1.58179 24.5,1.58179 13.1411,0 23.986,-0.1125 24.0997,-0.25 z m 1.287,-90.90591 c -0.3007,-0.7834 -0.4222,-8.60631 -0.2702,-17.38423 L 1173.5,106.5 l 12.5623,0.0545 c 10.6297,0.0462 13.168,0.36883 16.5,2.09754 5.4934,2.8501 7.9275,7.40916 7.9275,14.84792 0,7.41137 -2.432,11.9967 -7.8552,14.81038 -5.0972,2.64457 -28.2471,3.86296 -29.1409,1.53371 z"
       id="path829"
       inkscape:connector-curvature="0" />
    <path
       style="fill:#e8a508"
       d="M 0,281.5 V 0 h 868 868 V 281.5 563 H 868 0 Z m 211.75534,131.59602 c 0.18147,-64.24564 0.57546,-90.78968 1.36166,-91.737 0.87417,-1.0533 8.27,-1.38822 35.24466,-1.59602 L 282.5,319.5 v -34 -34 H 172 61.5 l -0.263112,34.23703 -0.263113,34.23702 34.763113,0.26298 L 130.5,320.5 130.74772,411 c 0.13624,49.775 0.4616,91.06767 0.72302,91.7615 0.37389,0.99231 8.96314,1.2057 40.25229,1 L 211.5,503.5 Z M 388,463.5 l 0.5,-40 13.18389,-0.27856 c 9.71845,-0.20535 13.49563,0.0575 14.36985,1 0.65229,0.70321 10.01953,18.82856 20.81611,40.27856 l 19.63015,39 40.75,0.26122 c 32.26557,0.20683 40.74957,-10e-4 40.74794,-1 -0.002,-1.20498 -3.33571,-7.4838 -35.81356,-67.45157 C 494.38297,420.90496 488,408.47866 488,407.69565 c 0,-0.783 1.836,-2.696 4.08001,-4.2511 7.95957,-5.51598 17.67511,-17.12188 22.44434,-26.81133 6.17286,-12.54115 8.52264,-22.31097 9.17159,-38.13322 C 525.40711,296.77979 507.60195,269.72889 470.5,257.68081 451.67636,251.56823 450.6608,251.5 378.5,251.5 h -66 l -0.25724,125 c -0.14148,68.75 -0.041,125.56799 0.2233,126.2622 0.37753,0.99163 8.47106,1.20599 37.75724,1 L 387.5,503.5 Z m 0.50013,-100.63908 c -0.29485,-0.76834 -0.41549,-12.63888 -0.26811,-26.37896 L 388.5,311.5 407,311.5194 c 21.5557,0.0226 27.55909,1.28057 34.03562,7.13173 8.95236,8.08792 9.39668,28.14892 0.81946,36.99837 -5.95859,6.1477 -11.80278,7.56005 -33.58698,8.11684 -15.87271,0.4057 -19.32553,0.24755 -19.76797,-0.90544 z M 642.5,377.5 v -126 h -40 -40 l -0.25724,125 c -0.14148,68.75 -0.0411,125.56767 0.22303,126.2615 0.37776,0.99225 8.97014,1.20568 40.25724,1 L 642.5,503.5 Z m 207.35299,123.75 c 0.6026,-1.5125 10.52369,-33.8 22.04687,-71.75 11.52318,-37.95 28.18474,-92.73233 37.02569,-121.7385 C 917.7665,278.75532 925,254.11293 925,253.00064 c 0,-2.002 -0.42505,-2.01972 -42.25,-1.76149 L 840.5,251.5 839.37912,256 c -0.61649,2.475 -9.56528,38.7 -19.88621,80.5 -10.32093,41.8 -19.14653,76.42 -19.61245,76.93333 -0.46592,0.51334 -1.07196,0.7085 -1.34676,0.43371 -0.27479,-0.2748 -9.35217,-36.4698 -20.17194,-80.43334 C 767.54199,289.47017 758.25422,252.9375 757.72228,252.25 756.97553,251.28488 747.09711,251 714.37756,251 673.41924,251 672,251.06359 672,252.89884 c 0,1.04436 6.02959,21.85686 13.3991,46.25 23.79041,78.74654 53.71771,178.02553 57.38067,190.35116 1.96141,6.6 3.99345,12.5625 4.51566,13.25 0.73741,0.97082 12.17375,1.25 51.20569,1.25 h 50.25624 z M 1034.5,377.5 v -126 h -40 -40 l -0.25724,125 c -0.14148,68.75 -0.0411,125.56767 0.22303,126.2615 0.37776,0.99225 8.97014,1.20568 40.25724,1 L 1034.5,503.5 Z m 109.2211,125.25 c 0.5312,-0.6875 3.0931,-9.3422 5.6931,-19.23267 2.5999,-9.89047 5.2004,-18.55297 5.7789,-19.25 0.8161,-0.9833 9.7569,-1.26733 39.8942,-1.26733 35.9843,0 38.9083,0.12877 39.7394,1.75 0.4934,0.9625 3.0382,9.625 5.6551,19.25 2.6169,9.625 5.2091,18.0625 5.7605,18.75 1.2682,1.5812 79.275,1.84007 80.2476,0.26631 0.3344,-0.54103 -3.2715,-13.02853 -8.0131,-27.75 C 1269.6827,323.77247 1248.6964,258.81897 1247.3901,255.25 l -1.5555,-4.25 h -49.2949 c -38.2532,0 -49.5115,0.27999 -50.2623,1.25 -0.5321,0.6875 -6.8724,19.475 -14.0896,41.75 -7.2171,22.275 -25.2868,77.84137 -40.1549,123.48083 -14.8681,45.63946 -27.0329,83.77696 -27.0329,84.75 0,1.66189 2.3575,1.76917 38.8776,1.76917 29.9202,0 39.1001,-0.288 39.8435,-1.25 z M 1173,398.01144 c 0,-1.60211 18.7696,-71.80365 20.5682,-76.92866 0.3272,-0.93233 0.835,-1.07954 1.4843,-0.43025 1.4246,1.42459 22.1483,77.2136 21.4307,78.37466 C 1216.1238,399.60866 1207.2568,400 1194.441,400 1173.7078,400 1173,399.9343 1173,398.01144 Z m 390.3694,1.46733 c -8.3934,-7.60635 -16.8534,-17.83034 -22.9899,-27.78342 C 1531.4682,357.24163 1524,332.23253 1524,316.84458 v -6.87694 l 3.75,-1.57231 c 11.1232,-4.66378 18.8369,-9.15653 25.5381,-14.87427 13.3519,-11.39248 25.471,-26.62657 35.2707,-44.33645 2.7315,-4.93634 3.69,-5.70249 13.4412,-10.7437 27.4024,-14.16657 49.1574,-36.70841 63.9279,-66.24021 2.7519,-5.50193 5.7463,-13.33821 9.0568,-23.7007 3.5834,-11.21689 6.046,-36.59748 4.0244,-41.47792 -1.7865,-4.31318 -5.3705,-4.93917 -28.5091,-4.9795 -17.8757,-0.0312 -20.139,-0.22115 -21.3084,-1.78872 -0.7196,-0.964624 -1.058,-2.87886 -0.752,-4.25386 0.306,-1.375 0.846,-8.141673 1.1999,-15.037051 0.567,-11.044948 0.4397,-12.740918 -1.0694,-14.25 C 1626.9721,65.114989 1618.9153,65 1508.551,65 c -103.834,0 -118.4581,0.183119 -119.5485,1.496951 -0.9623,1.159531 -1.0313,4.935076 -0.3063,16.75 0.5148,8.389177 0.5658,16.016642 0.1132,16.949919 -0.7309,1.50713 -3.3352,1.73077 -23.2904,2 -21.875,0.29514 -22.5275,0.3634 -24.7432,2.58846 -1.9765,1.98473 -2.2604,3.23962 -2.1589,9.54014 0.4589,28.47213 10.9348,58.67031 28.394,81.84926 14.1515,18.78765 29.9533,32.16517 50.7395,42.95517 7.9377,4.12042 8.2375,4.41326 13.1753,12.8701 7.9109,13.54886 15.3509,23.34881 25.5375,33.63786 11.0638,11.17518 19.0245,16.80739 29.6459,20.97456 3.8587,1.51392 7.4609,3.58419 8.0049,4.6006 1.1945,2.23197 -0.417,18.30476 -2.7325,27.25222 -6.884,26.60191 -19.4695,46.58282 -40.8815,64.90454 l -3,2.56702 61.5,0.002 61.5,0.002 -7.1306,-6.46192 z M 1400.8705,209.61511 C 1385.5273,196.0786 1377.5499,186.23713 1368.7587,170 c -7.9101,-14.60984 -15.5995,-41.94909 -13.7733,-48.97001 0.8699,-3.34463 3.1543,-3.81338 19.1538,-3.93031 17.7445,-0.12968 17.0556,-0.71443 19.3221,16.40032 1.4973,11.30635 5.6132,32.60343 8.4069,43.5 2.8606,11.15764 5.4587,19.83826 8.1213,27.13385 5.5899,15.31676 3.4722,16.58973 -9.119,5.48126 z M 1605,215.3376 c 0,-0.91432 1.7669,-7.10182 3.9265,-13.75 7.0559,-21.72091 11.7262,-41.83792 15.5574,-67.01152 1.751,-11.50486 2.6878,-15.22849 4.0893,-16.2533 2.3932,-1.74995 31.7371,-1.14009 33.9613,0.70583 2.0055,1.66446 1.8401,6.15464 -0.6317,17.14586 -6.3028,28.02594 -18.3325,49.1848 -39.302,69.12759 C 1616.0057,211.57425 1608.4583,217 1606.3286,217 1605.5978,217 1605,216.25192 1605,215.3376 Z m -29.9268,-30.27911 c -3.5064,-2.80292 -7.3713,-5.34618 -8.5886,-5.65171 -2.0481,-0.51403 -6.356,1.80938 -15.2615,8.23101 -1.2522,0.903 -2.5157,1.40293 -2.8077,1.11094 -0.292,-0.29198 0.6201,-4.05491 2.0269,-8.36206 1.4067,-4.30715 2.5577,-8.76954 2.5577,-9.91643 0,-1.91572 -4.3096,-5.79064 -11.6449,-10.47024 -1.2932,-0.825 -2.2031,-1.95 -2.0221,-2.5 0.181,-0.55 4.6206,-1.12808 9.8657,-1.28462 l 9.5366,-0.28461 2.8823,-8.61754 c 1.5853,-4.73964 3.2701,-8.66157 3.7439,-8.71538 0.8313,-0.0944 3.8147,7.26174 5.0298,12.40215 1.2171,5.14858 1.9511,5.5 11.4869,5.5 4.9231,0 9.327,0.3814 9.7865,0.84755 0.9742,0.98848 -4.2858,5.68175 -10.5032,9.37151 -4.8279,2.86514 -4.7507,1.96849 -1.2195,14.16171 1.1756,4.05942 1.9955,7.80672 1.822,8.32734 -0.1736,0.52062 -3.1844,-1.34671 -6.6908,-4.14962 z m -114.27,-1.62618 c -8.6875,-6.29665 -8.0327,-6.32417 -17.3941,0.73098 -4.3472,3.2763 -7.4091,4.72759 -7.4091,3.51186 0,-0.17866 1.125,-3.63248 2.5,-7.67515 1.375,-4.04267 2.4983,-8.28399 2.4962,-9.42515 0,-1.91994 -8.83,-9.80636 -12.5901,-11.24926 -3.5658,-1.36833 -0.61,-2.27673 8.2628,-2.53938 l 9.669,-0.28621 2.931,-8.8 c 1.6656,-5.00052 3.411,-8.64003 4.0426,-8.42948 0.6114,0.20378 2.2495,3.93878 3.6402,8.3 1.3907,4.36121 2.983,8.26009 3.5385,8.66417 0.5554,0.40408 4.9473,0.74158 9.7598,0.75 5.0822,0.009 8.75,0.42923 8.75,1.00277 0,0.5431 -1.6875,2.06736 -3.75,3.38726 -2.0625,1.31989 -5.4694,3.91304 -7.5708,5.76254 l -3.8208,3.36274 3.0708,8.66996 c 1.6889,4.76848 3.0708,8.93098 3.0708,9.25 0,1.32908 -1.9128,0.29171 -9.1968,-4.98765 z M 1530,183.98869 c -3.575,-2.69224 -8.75,-6.6517 -11.5,-8.7988 -2.75,-2.1471 -6.2092,-4.6764 -7.6871,-5.62066 l -2.6871,-1.71684 -14.0716,10.0738 C 1486.3148,183.46679 1479.5365,188 1478.9913,188 c -1.2559,0 -1.2672,-1.52985 -0.028,-3.76357 1.1417,-2.05755 10.0365,-28.63631 10.0365,-29.99023 0,-0.94512 -20.3811,-16.66301 -24.6735,-19.02814 C 1463.0469,134.513 1462,133.2755 1462,132.46806 1462,131.2335 1464.7703,131 1479.4173,131 h 17.4173 l 1.6705,-4.75 c 0.9187,-2.6125 2.306,-6.22777 3.0827,-8.03393 0.7767,-1.80616 1.4122,-3.76034 1.4122,-4.34263 0,-1.98557 5.2568,-15.87344 6.0084,-15.87344 0.9605,0 1.9001,2.54629 7.0113,19 2.3065,7.425 4.7081,13.83061 5.337,14.23469 0.6288,0.40408 9.0183,0.75986 18.6433,0.79064 l 17.5,0.0559 -3.5,2.99922 c -1.925,1.64957 -8.0933,6.17449 -13.7072,10.05537 -5.614,3.88089 -10.7304,7.68644 -11.3697,8.45678 -0.8931,1.07612 -0.7799,2.50184 0.4886,6.15398 3.201,9.21607 8.5822,26.76855 8.5852,28.00337 0,1.96472 -1.0558,1.46584 -7.9969,-3.76131 z m -904.12387,48.09467 c 27.67942,-6.98369 43.05705,-25.5768 43.10909,-52.12326 0.0271,-13.80215 -4.6644,-25.86702 -12.86555,-33.08597 -9.96566,-8.77212 -22.52267,-13.66335 -50.9881,-19.861 -9.69736,-2.11137 -18.82586,-4.30049 -20.28554,-4.86473 -10.65641,-4.11918 -8.22552,-15.68223 3.82269,-18.18343 12.12399,-2.51693 20.60143,0.87018 24.55657,9.81142 1.05648,2.38836 2.51714,4.57128 3.2459,4.85093 2.29446,0.88047 46.94916,-3.71266 48.24743,-4.96267 1.59516,-1.53586 -0.65124,-11.51003 -4.3892,-19.488414 C 656.75272,86.542065 646.45315,76.457601 638,72.313153 c -12.9384,-6.343492 -20.42758,-7.785903 -40.5,-7.80027 -21.18222,-0.01516 -29.44263,1.473804 -42.30539,7.625676 -15.58493,7.453807 -24.98889,20.073039 -27.42764,36.805341 -2.13667,14.65965 1.53179,28.82156 9.8682,38.0957 9.29464,10.34016 22.5293,15.9321 51.96241,21.95527 10.70078,2.1898 20.78968,4.67115 22.41977,5.5141 4.44874,2.30053 6.33887,5.79854 5.70138,10.55135 -1.01297,7.5523 -5.61077,10.3242 -17.21873,10.38074 -13.37748,0.0652 -20.92294,-4.17689 -24.02113,-13.50468 l -1.65089,-4.97036 -25.16399,0.26699 L 524.5,177.5 l -0.32011,2.25423 c -0.46764,3.2932 3.43382,17.91192 6.40394,23.99553 3.224,6.60359 11.3979,15.62254 17.91617,19.76839 6.95259,4.42211 16.88743,8.19992 26.15116,9.94422 11.69159,2.20145 40.06101,1.43773 51.22497,-1.37901 z M 106.76232,193.75 c 0.2371,-33.21589 0.82334,-41.02874 2.62625,-35 0.28783,0.9625 3.9385,13.225 8.11258,27.25 4.17408,14.025 8.93822,29.8875 10.58698,35.25 l 2.99776,9.75 h 17.83461 c 13.088,0 18.09062,-0.33268 18.79653,-1.25 0.52905,-0.6875 5.36431,-16.1 10.74502,-34.25 5.3807,-18.15 10.24108,-34.125 10.80085,-35.5 l 1.01775,-2.5 0.75999,2.5 c 0.418,1.375 0.80486,17.9125 0.85968,36.75 L 192,231 H 215.5 239 V 149.5 68 H 209.53525 180.0705 l -2.87846,9.25 c -1.58315,5.0875 -7.95866,26.19495 -14.16779,46.90545 -6.20914,20.71049 -11.65523,38.24746 -12.10242,38.97103 -0.4472,0.72358 -1.09472,1.03397 -1.43893,0.68975 -0.34422,-0.34422 -7.04595,-21.93119 -14.89274,-47.97104 L 120.32327,68.5 90.980167,68.234607 c -22.80851,-0.206291 -29.52198,0.01641 -30.146324,1 -0.9285,1.462763 -1.142955,157.796283 -0.219762,160.202083 0.542218,1.413 3.26306,1.56886 23.25,1.33179 L 106.5,230.5 Z m 247.10344,35.5 c 0.51487,-0.9625 2.15493,-6.25 3.64457,-11.75 1.48964,-5.5 3.16432,-10.5625 3.7215,-11.25 1.45807,-1.7991 49.08318,-1.7991 50.52515,0 0.55103,0.6875 2.1925,5.525 3.64771,10.75 4.4039,15.81236 0.5107,14 30.07387,14 C 467.83144,231 471,230.80812 471,229.45452 471,228.6045 462.6331,201.942 452.40689,170.20452 442.18068,138.46703 430.87422,103.275 427.28143,92 423.68863,80.725 420.33969,70.7125 419.83935,69.75 419.00236,68.139907 416.42391,68 387.58726,68 c -23.88865,0 -31.57361,0.29727 -32.31471,1.25 -0.53478,0.6875 -4.37696,11.825 -8.53817,24.75 -4.16121,12.925 -15.70376,48.55909 -25.65011,79.18687 C 311.13792,203.81464 303,229.35214 303,229.93687 303,230.65932 310.99991,231 327.96482,231 c 22.75272,0 25.04776,-0.15506 25.90094,-1.75 z m 19.15111,-66.5 c 0.0297,-3.95426 12.44314,-48.17854 13.48313,-48.03501 1.05341,0.14539 13.38734,44.16646 13.45857,48.03501 0.041,2.22427 -0.11296,2.25 -13.45857,2.25 -13.33833,0 -13.4998,-0.0269 -13.48313,-2.25 z M 824,171.5 l 0.5,-59 22.25,-0.26913 22.25,-0.26913 V 89.980868 68 h -70.89301 c -63.72266,0 -70.95441,0.159987 -71.5,1.581787 -0.89519,2.332832 -0.70904,39.709353 0.20494,41.148143 0.57055,0.89817 6.70303,1.30278 22.73468,1.5 L 771.5,112.5 l 0.24925,58 c 0.13709,31.9 0.46344,58.57025 0.72522,59.26722 0.37066,0.98683 6.06855,1.2081 25.75075,1 L 823.5,230.5 Z m 231.5057,58.25 c 0.572,-1.6146 3.4867,-31.24332 3.491,-35.48768 v -3.23768 l -36.75,-0.26232 -36.75,-0.26232 V 180 169.5 l 32.25,-0.26385 32.25,-0.26386 V 149 129.02771 l -32.25,-0.26386 -32.25,-0.26385 v -10 -10 l 34.5,-0.5 34.5,-0.5 V 88 68.5 l -59.93607,-0.257942 c -47.28663,-0.203504 -60.10463,0.0075 -60.73469,1 -0.92087,1.450507 -1.13779,157.790292 -0.22225,160.176152 0.54423,1.41824 6.85473,1.58179 61.03138,1.58179 47.43663,0 60.51963,-0.26868 60.86733,-1.25 z m 116.701,1 c 0.1137,-0.1375 0.4512,-11.725 0.75,-25.75 l 0.5433,-25.5 h 8.4284 8.4285 l 12.0998,24.13032 c 6.6548,13.27168 12.7047,24.85918 13.444,25.75 1.1744,1.41505 4.5505,1.61968 26.7217,1.61968 22.004,0 25.3776,-0.20142 25.3776,-1.51516 0,-1.34312 -6.8721,-14.41436 -25.3779,-48.27046 C 1239.53,175.55729 1237,170.51031 1237,169.99886 c 0,-0.51144 3.0919,-4.02175 6.8708,-7.80069 11.5558,-11.55584 16.9651,-26.95182 15.7156,-44.72979 -1.5693,-22.327623 -11.7696,-36.692725 -31.326,-44.116494 -12.5742,-4.773232 -18.5624,-5.279398 -62.9034,-5.316998 -36.6152,-0.03105 -41.2098,0.139189 -41.75,1.546899 -0.7932,2.067031 -0.7932,157.769393 0,159.836423 0.53,1.38131 3.6352,1.58179 24.5,1.58179 13.1411,0 23.986,-0.1125 24.0997,-0.25 z m 1.287,-90.90591 c -0.3007,-0.7834 -0.4222,-8.60631 -0.2702,-17.38423 L 1173.5,106.5 l 12.5623,0.0545 c 10.6297,0.0462 13.168,0.36883 16.5,2.09754 5.4934,2.8501 7.9275,7.40916 7.9275,14.84792 0,7.41137 -2.432,11.9967 -7.8552,14.81038 -5.0972,2.64457 -28.2471,3.86296 -29.1409,1.53371 z"
       id="path827"
       inkscape:connector-curvature="0" />
    <path
       style="fill:#c1770d"
       d="M 0,281.5 V 0 h 868 868 V 281.5 563 H 868 0 Z m 211.75534,131.59602 c 0.18147,-64.24564 0.57546,-90.78968 1.36166,-91.737 0.87417,-1.0533 8.27,-1.38822 35.24466,-1.59602 L 282.5,319.5 v -34 -34 H 172 61.5 l -0.263112,34.23703 -0.263113,34.23702 34.763113,0.26298 L 130.5,320.5 130.74772,411 c 0.13624,49.775 0.4616,91.06767 0.72302,91.7615 0.37389,0.99231 8.96314,1.2057 40.25229,1 L 211.5,503.5 Z M 388,463.5 l 0.5,-40 13.18389,-0.27856 c 9.71845,-0.20535 13.49563,0.0575 14.36985,1 0.65229,0.70321 10.01953,18.82856 20.81611,40.27856 l 19.63015,39 40.75,0.26122 c 32.26557,0.20683 40.74957,-10e-4 40.74794,-1 -0.002,-1.20498 -3.33571,-7.4838 -35.81356,-67.45157 C 494.38297,420.90496 488,408.47866 488,407.69565 c 0,-0.783 1.836,-2.696 4.08001,-4.2511 7.95957,-5.51598 17.67511,-17.12188 22.44434,-26.81133 6.17286,-12.54115 8.52264,-22.31097 9.17159,-38.13322 C 525.40711,296.77979 507.60195,269.72889 470.5,257.68081 451.67636,251.56823 450.6608,251.5 378.5,251.5 h -66 l -0.25724,125 c -0.14148,68.75 -0.041,125.56799 0.2233,126.2622 0.37753,0.99163 8.47106,1.20599 37.75724,1 L 387.5,503.5 Z m 0.50013,-100.63908 c -0.29485,-0.76834 -0.41549,-12.63888 -0.26811,-26.37896 L 388.5,311.5 407,311.5194 c 21.5557,0.0226 27.55909,1.28057 34.03562,7.13173 8.95236,8.08792 9.39668,28.14892 0.81946,36.99837 -5.95859,6.1477 -11.80278,7.56005 -33.58698,8.11684 -15.87271,0.4057 -19.32553,0.24755 -19.76797,-0.90544 z M 642.5,377.5 v -126 h -40 -40 l -0.25724,125 c -0.14148,68.75 -0.0411,125.56767 0.22303,126.2615 0.37776,0.99225 8.97014,1.20568 40.25724,1 L 642.5,503.5 Z m 207.35299,123.75 c 0.6026,-1.5125 10.52369,-33.8 22.04687,-71.75 11.52318,-37.95 28.18474,-92.73233 37.02569,-121.7385 C 917.7665,278.75532 925,254.11293 925,253.00064 c 0,-2.002 -0.42505,-2.01972 -42.25,-1.76149 L 840.5,251.5 839.37912,256 c -0.61649,2.475 -9.56528,38.7 -19.88621,80.5 -10.32093,41.8 -19.14653,76.42 -19.61245,76.93333 -0.46592,0.51334 -1.07196,0.7085 -1.34676,0.43371 -0.27479,-0.2748 -9.35217,-36.4698 -20.17194,-80.43334 C 767.54199,289.47017 758.25422,252.9375 757.72228,252.25 756.97553,251.28488 747.09711,251 714.37756,251 673.41924,251 672,251.06359 672,252.89884 c 0,1.04436 6.02959,21.85686 13.3991,46.25 23.79041,78.74654 53.71771,178.02553 57.38067,190.35116 1.96141,6.6 3.99345,12.5625 4.51566,13.25 0.73741,0.97082 12.17375,1.25 51.20569,1.25 h 50.25624 z M 1034.5,377.5 v -126 h -40 -40 l -0.25724,125 c -0.14148,68.75 -0.0411,125.56767 0.22303,126.2615 0.37776,0.99225 8.97014,1.20568 40.25724,1 L 1034.5,503.5 Z m 109.2211,125.25 c 0.5312,-0.6875 3.0931,-9.3422 5.6931,-19.23267 2.5999,-9.89047 5.2004,-18.55297 5.7789,-19.25 0.8161,-0.9833 9.7569,-1.26733 39.8942,-1.26733 35.9843,0 38.9083,0.12877 39.7394,1.75 0.4934,0.9625 3.0382,9.625 5.6551,19.25 2.6169,9.625 5.2091,18.0625 5.7605,18.75 1.2682,1.5812 79.275,1.84007 80.2476,0.26631 0.3344,-0.54103 -3.2715,-13.02853 -8.0131,-27.75 C 1269.6827,323.77247 1248.6964,258.81897 1247.3901,255.25 l -1.5555,-4.25 h -49.2949 c -38.2532,0 -49.5115,0.27999 -50.2623,1.25 -0.5321,0.6875 -6.8724,19.475 -14.0896,41.75 -7.2171,22.275 -25.2868,77.84137 -40.1549,123.48083 -14.8681,45.63946 -27.0329,83.77696 -27.0329,84.75 0,1.66189 2.3575,1.76917 38.8776,1.76917 29.9202,0 39.1001,-0.288 39.8435,-1.25 z M 1173,398.01144 c 0,-1.60211 18.7696,-71.80365 20.5682,-76.92866 0.3272,-0.93233 0.835,-1.07954 1.4843,-0.43025 1.4246,1.42459 22.1483,77.2136 21.4307,78.37466 C 1216.1238,399.60866 1207.2568,400 1194.441,400 1173.7078,400 1173,399.9343 1173,398.01144 Z m 280.5356,20.59582 c 1.1903,-1.19032 1.0709,-1.47901 -0.8214,-1.98634 -3.2474,-0.87061 -3.7142,-0.7706 -3.7142,0.79575 0,1.17531 0.9908,2.05475 2.8214,2.50438 0.1768,0.0434 0.9482,-0.54778 1.7142,-1.31379 z m 15.1936,-1.21143 c -0.3323,-0.33229 -1.1948,-0.36781 -1.9167,-0.0789 -0.7977,0.31922 -0.5608,0.55618 0.6042,0.60416 1.0541,0.0434 1.6448,-0.19293 1.3125,-0.52522 z m -20.2485,-5.40581 0.019,-2.49002 61.9577,-0.25771 c 34.0767,-0.14173 62.3348,-0.63476 62.7956,-1.09562 0.4609,-0.46085 -2.6701,-3.88873 -6.9577,-7.61751 -20.5535,-17.87471 -33.9701,-40.53107 -39.2148,-66.22146 -2.3652,-11.58557 -2.7365,-22.51866 -0.8187,-24.1103 0.6942,-0.57612 3.8736,-2.02455 7.0654,-3.21874 3.1918,-1.19419 8.626,-4.06418 12.0762,-6.37774 16.964,-11.37566 28.2137,-24.44963 44.7802,-52.04196 2.2256,-3.70692 4.1037,-5.18244 11,-8.64195 13.0248,-6.53391 25.4045,-15.54374 36.2978,-26.41701 26.7008,-26.65194 42.3022,-61.86348 42.8499,-96.71012 0.2503,-15.91784 1.5724,-15.16166 -27.6074,-15.78988 l -23.2242,-0.5 0.3755,-17.147642 c 0.3611,-16.486343 0.2961,-17.190153 -1.6842,-18.25 C 1626.7241,64.317156 1592.3276,64 1508.6372,64 c -108.7056,0 -117.62,0.125679 -119.1745,1.680164 -1.4695,1.469473 -1.6352,3.758004 -1.3214,18.25 L 1388.5,100.5 1366,101 c -15.2541,0.33898 -23.1988,0.90008 -24.6699,1.74232 -3.7809,2.16462 -4.6383,7.02192 -3.3596,19.03229 2.2232,20.88196 6.6032,36.36178 15.1618,53.58487 13.9176,28.00761 38.6961,52.46372 67.1596,66.2857 5.102,2.47752 6.2224,3.58947 9.4046,9.3337 7.4605,13.46681 15.95,24.73093 26.7715,35.52112 11.2747,11.24203 19.2592,16.8053 30.7081,21.39621 3.1218,1.25183 5.8725,2.7998 6.1125,3.43993 0.7504,2.00055 -1.0333,19.85322 -2.6639,26.66386 -5.3732,22.442 -18.6004,44.93814 -34.7948,59.17716 -11.9648,10.52012 -11.5289,9.96123 -11.0395,14.15343 0.3272,2.80232 0.8555,3.69167 2.0557,3.46053 0.9644,-0.18573 1.6231,-1.31446 1.6346,-2.8011 z m -45.8271,-201.99533 c -24.7472,-19.90811 -41.4221,-48.99071 -46.6296,-81.32643 -1.5754,-9.78227 -1.7812,-9.66826 17.4522,-9.66826 10.3792,0 16.6441,0.38571 17.0547,1.04999 0.3569,0.57749 1.5115,6.98999 2.5659,14.25 3.4161,23.52337 8.9524,47.78666 15.2305,66.74864 4.205,12.70044 4.5013,14.12846 3.0379,14.64256 -0.6242,0.21928 -4.5444,-2.34415 -8.7116,-5.6965 z m 203.717,4.52881 c -0.3374,-0.8794 0.088,-3.49444 0.9443,-5.81121 6.7386,-18.22159 13.4353,-45.75501 17.5634,-72.21229 l 2.6525,-17 17.2097,-0.27351 17.2096,-0.2735 0.6975,2.7735 c 1.4331,5.69908 -4.9677,29.69834 -11.6749,43.77351 -6.4243,13.48165 -13.5789,23.27565 -25.9329,35.5 -12.8532,12.71833 -17.6459,16.19005 -18.6692,13.5235 z m -980.49447,17.55986 c 27.67942,-6.98369 43.05705,-25.5768 43.10909,-52.12326 0.0271,-13.80215 -4.6644,-25.86702 -12.86555,-33.08597 -9.96566,-8.77212 -22.52267,-13.66335 -50.9881,-19.861 -9.69736,-2.11137 -18.82586,-4.30049 -20.28554,-4.86473 -10.65641,-4.11918 -8.22552,-15.68223 3.82269,-18.18343 12.12399,-2.51693 20.60143,0.87018 24.55657,9.81142 1.05648,2.38836 2.51714,4.57128 3.2459,4.85093 2.29446,0.88047 46.94916,-3.71266 48.24743,-4.96267 1.59516,-1.53586 -0.65124,-11.51003 -4.3892,-19.488414 C 656.75272,86.542065 646.45315,76.457601 638,72.313153 c -12.9384,-6.343492 -20.42758,-7.785903 -40.5,-7.80027 -21.18222,-0.01516 -29.44263,1.473804 -42.30539,7.625676 -15.58493,7.453807 -24.98889,20.073039 -27.42764,36.805341 -2.13667,14.65965 1.53179,28.82156 9.8682,38.0957 9.29464,10.34016 22.5293,15.9321 51.96241,21.95527 10.70078,2.1898 20.78968,4.67115 22.41977,5.5141 4.44874,2.30053 6.33887,5.79854 5.70138,10.55135 -1.01297,7.5523 -5.61077,10.3242 -17.21873,10.38074 -13.37748,0.0652 -20.92294,-4.17689 -24.02113,-13.50468 l -1.65089,-4.97036 -25.16399,0.26699 L 524.5,177.5 l -0.32011,2.25423 c -0.46764,3.2932 3.43382,17.91192 6.40394,23.99553 3.224,6.60359 11.3979,15.62254 17.91617,19.76839 6.95259,4.42211 16.88743,8.19992 26.15116,9.94422 11.69159,2.20145 40.06101,1.43773 51.22497,-1.37901 z M 106.76232,193.75 c 0.2371,-33.21589 0.82334,-41.02874 2.62625,-35 0.28783,0.9625 3.9385,13.225 8.11258,27.25 4.17408,14.025 8.93822,29.8875 10.58698,35.25 l 2.99776,9.75 h 17.83461 c 13.088,0 18.09062,-0.33268 18.79653,-1.25 0.52905,-0.6875 5.36431,-16.1 10.74502,-34.25 5.3807,-18.15 10.24108,-34.125 10.80085,-35.5 l 1.01775,-2.5 0.75999,2.5 c 0.418,1.375 0.80486,17.9125 0.85968,36.75 L 192,231 H 215.5 239 V 149.5 68 H 209.53525 180.0705 l -2.87846,9.25 c -1.58315,5.0875 -7.95866,26.19495 -14.16779,46.90545 -6.20914,20.71049 -11.65523,38.24746 -12.10242,38.97103 -0.4472,0.72358 -1.09472,1.03397 -1.43893,0.68975 -0.34422,-0.34422 -7.04595,-21.93119 -14.89274,-47.97104 L 120.32327,68.5 90.980167,68.234607 c -22.80851,-0.206291 -29.52198,0.01641 -30.146324,1 -0.9285,1.462763 -1.142955,157.796283 -0.219762,160.202083 0.542218,1.413 3.26306,1.56886 23.25,1.33179 L 106.5,230.5 Z m 247.10344,35.5 c 0.51487,-0.9625 2.15493,-6.25 3.64457,-11.75 1.48964,-5.5 3.16432,-10.5625 3.7215,-11.25 1.45807,-1.7991 49.08318,-1.7991 50.52515,0 0.55103,0.6875 2.1925,5.525 3.64771,10.75 4.4039,15.81236 0.5107,14 30.07387,14 C 467.83144,231 471,230.80812 471,229.45452 471,228.6045 462.6331,201.942 452.40689,170.20452 442.18068,138.46703 430.87422,103.275 427.28143,92 423.68863,80.725 420.33969,70.7125 419.83935,69.75 419.00236,68.139907 416.42391,68 387.58726,68 c -23.88865,0 -31.57361,0.29727 -32.31471,1.25 -0.53478,0.6875 -4.37696,11.825 -8.53817,24.75 -4.16121,12.925 -15.70376,48.55909 -25.65011,79.18687 C 311.13792,203.81464 303,229.35214 303,229.93687 303,230.65932 310.99991,231 327.96482,231 c 22.75272,0 25.04776,-0.15506 25.90094,-1.75 z m 19.15111,-66.5 c 0.0297,-3.95426 12.44314,-48.17854 13.48313,-48.03501 1.05341,0.14539 13.38734,44.16646 13.45857,48.03501 0.041,2.22427 -0.11296,2.25 -13.45857,2.25 -13.33833,0 -13.4998,-0.0269 -13.48313,-2.25 z M 824,171.5 l 0.5,-59 22.25,-0.26913 22.25,-0.26913 V 89.980868 68 h -70.89301 c -63.72266,0 -70.95441,0.159987 -71.5,1.581787 -0.89519,2.332832 -0.70904,39.709353 0.20494,41.148143 0.57055,0.89817 6.70303,1.30278 22.73468,1.5 L 771.5,112.5 l 0.24925,58 c 0.13709,31.9 0.46344,58.57025 0.72522,59.26722 0.37066,0.98683 6.06855,1.2081 25.75075,1 L 823.5,230.5 Z m 231.5057,58.25 c 0.572,-1.6146 3.4867,-31.24332 3.491,-35.48768 v -3.23768 l -36.75,-0.26232 -36.75,-0.26232 V 180 169.5 l 32.25,-0.26385 32.25,-0.26386 V 149 129.02771 l -32.25,-0.26386 -32.25,-0.26385 v -10 -10 l 34.5,-0.5 34.5,-0.5 V 88 68.5 l -59.93607,-0.257942 c -47.28663,-0.203504 -60.10463,0.0075 -60.73469,1 -0.92087,1.450507 -1.13779,157.790292 -0.22225,160.176152 0.54423,1.41824 6.85473,1.58179 61.03138,1.58179 47.43663,0 60.51963,-0.26868 60.86733,-1.25 z m 116.701,1 c 0.1137,-0.1375 0.4512,-11.725 0.75,-25.75 l 0.5433,-25.5 h 8.4284 8.4285 l 12.0998,24.13032 c 6.6548,13.27168 12.7047,24.85918 13.444,25.75 1.1744,1.41505 4.5505,1.61968 26.7217,1.61968 22.004,0 25.3776,-0.20142 25.3776,-1.51516 0,-1.34312 -6.8721,-14.41436 -25.3779,-48.27046 C 1239.53,175.55729 1237,170.51031 1237,169.99886 c 0,-0.51144 3.0919,-4.02175 6.8708,-7.80069 11.5558,-11.55584 16.9651,-26.95182 15.7156,-44.72979 -1.5693,-22.327623 -11.7696,-36.692725 -31.326,-44.116494 -12.5742,-4.773232 -18.5624,-5.279398 -62.9034,-5.316998 -36.6152,-0.03105 -41.2098,0.139189 -41.75,1.546899 -0.7932,2.067031 -0.7932,157.769393 0,159.836423 0.53,1.38131 3.6352,1.58179 24.5,1.58179 13.1411,0 23.986,-0.1125 24.0997,-0.25 z m 1.287,-90.90591 c -0.3007,-0.7834 -0.4222,-8.60631 -0.2702,-17.38423 L 1173.5,106.5 l 12.5623,0.0545 c 10.6297,0.0462 13.168,0.36883 16.5,2.09754 5.4934,2.8501 7.9275,7.40916 7.9275,14.84792 0,7.41137 -2.432,11.9967 -7.8552,14.81038 -5.0972,2.64457 -28.2471,3.86296 -29.1409,1.53371 z"
       id="path825"
       inkscape:connector-curvature="0" />
    <path
       style="fill:#4f515b"
       d="M 0,281.5 V 0 h 868 868 V 281.5 563 H 868 0 Z m 211.75534,131.59602 c 0.18147,-64.24564 0.57546,-90.78968 1.36166,-91.737 0.87417,-1.0533 8.27,-1.38822 35.24466,-1.59602 L 282.5,319.5 v -34 -34 H 172 61.5 l -0.263112,34.23703 -0.263113,34.23702 34.763113,0.26298 L 130.5,320.5 130.74772,411 c 0.13624,49.775 0.4616,91.06767 0.72302,91.7615 0.37389,0.99231 8.96314,1.2057 40.25229,1 L 211.5,503.5 Z M 388,463.5 l 0.5,-40 13.18389,-0.27856 c 9.71845,-0.20535 13.49563,0.0575 14.36985,1 0.65229,0.70321 10.01953,18.82856 20.81611,40.27856 l 19.63015,39 40.75,0.26122 c 32.26557,0.20683 40.74957,-10e-4 40.74794,-1 -0.002,-1.20498 -3.33571,-7.4838 -35.81356,-67.45157 C 494.38297,420.90496 488,408.47866 488,407.69565 c 0,-0.783 1.836,-2.696 4.08001,-4.2511 7.95957,-5.51598 17.67511,-17.12188 22.44434,-26.81133 6.17286,-12.54115 8.52264,-22.31097 9.17159,-38.13322 C 525.40711,296.77979 507.60195,269.72889 470.5,257.68081 451.67636,251.56823 450.6608,251.5 378.5,251.5 h -66 l -0.25724,125 c -0.14148,68.75 -0.041,125.56799 0.2233,126.2622 0.37753,0.99163 8.47106,1.20599 37.75724,1 L 387.5,503.5 Z m 0.50013,-100.63908 c -0.29485,-0.76834 -0.41549,-12.63888 -0.26811,-26.37896 L 388.5,311.5 407,311.5194 c 21.5557,0.0226 27.55909,1.28057 34.03562,7.13173 8.95236,8.08792 9.39668,28.14892 0.81946,36.99837 -5.95859,6.1477 -11.80278,7.56005 -33.58698,8.11684 -15.87271,0.4057 -19.32553,0.24755 -19.76797,-0.90544 z M 642.5,377.5 v -126 h -40 -40 l -0.25724,125 c -0.14148,68.75 -0.0411,125.56767 0.22303,126.2615 0.37776,0.99225 8.97014,1.20568 40.25724,1 L 642.5,503.5 Z m 207.35299,123.75 c 0.6026,-1.5125 10.52369,-33.8 22.04687,-71.75 11.52318,-37.95 28.18474,-92.73233 37.02569,-121.7385 C 917.7665,278.75532 925,254.11293 925,253.00064 c 0,-2.002 -0.42505,-2.01972 -42.25,-1.76149 L 840.5,251.5 839.37912,256 c -0.61649,2.475 -9.56528,38.7 -19.88621,80.5 -10.32093,41.8 -19.14653,76.42 -19.61245,76.93333 -0.46592,0.51334 -1.07196,0.7085 -1.34676,0.43371 -0.27479,-0.2748 -9.35217,-36.4698 -20.17194,-80.43334 C 767.54199,289.47017 758.25422,252.9375 757.72228,252.25 756.97553,251.28488 747.09711,251 714.37756,251 673.41924,251 672,251.06359 672,252.89884 c 0,1.04436 6.02959,21.85686 13.3991,46.25 23.79041,78.74654 53.71771,178.02553 57.38067,190.35116 1.96141,6.6 3.99345,12.5625 4.51566,13.25 0.73741,0.97082 12.17375,1.25 51.20569,1.25 h 50.25624 z M 1034.5,377.5 v -126 h -40 -40 l -0.25724,125 c -0.14148,68.75 -0.0411,125.56767 0.22303,126.2615 0.37776,0.99225 8.97014,1.20568 40.25724,1 L 1034.5,503.5 Z m 109.2211,125.25 c 0.5312,-0.6875 3.0931,-9.3422 5.6931,-19.23267 2.5999,-9.89047 5.2004,-18.55297 5.7789,-19.25 0.8161,-0.9833 9.7569,-1.26733 39.8942,-1.26733 35.9843,0 38.9083,0.12877 39.7394,1.75 0.4934,0.9625 3.0382,9.625 5.6551,19.25 2.6169,9.625 5.2091,18.0625 5.7605,18.75 1.2682,1.5812 79.275,1.84007 80.2476,0.26631 0.3344,-0.54103 -3.2715,-13.02853 -8.0131,-27.75 C 1269.6827,323.77247 1248.6964,258.81897 1247.3901,255.25 l -1.5555,-4.25 h -49.2949 c -38.2532,0 -49.5115,0.27999 -50.2623,1.25 -0.5321,0.6875 -6.8724,19.475 -14.0896,41.75 -7.2171,22.275 -25.2868,77.84137 -40.1549,123.48083 -14.8681,45.63946 -27.0329,83.77696 -27.0329,84.75 0,1.66189 2.3575,1.76917 38.8776,1.76917 29.9202,0 39.1001,-0.288 39.8435,-1.25 z M 1173,398.01144 c 0,-1.60211 18.7696,-71.80365 20.5682,-76.92866 0.3272,-0.93233 0.835,-1.07954 1.4843,-0.43025 1.4246,1.42459 22.1483,77.2136 21.4307,78.37466 C 1216.1238,399.60866 1207.2568,400 1194.441,400 1173.7078,400 1173,399.9343 1173,398.01144 Z m 401.4182,24.38157 c 1.2433,-0.47709 1.5818,-2.17537 1.5818,-7.93576 v -7.32878 l -7.4163,-6.0601 c -24.5073,-20.02565 -41.4439,-52.74629 -41.9365,-81.01903 l -0.1472,-8.45067 10.1087,-5.04933 c 11.8122,-5.90029 18.3335,-10.73296 28.02,-20.76452 8.5437,-8.8481 16.2843,-19.2461 23.3745,-31.39924 5.0653,-8.68221 5.6264,-9.26679 11.8334,-12.32762 47.0289,-23.19098 78.4361,-70.1493 81.7672,-122.25374 0.747,-11.68513 -0.1848,-15.90951 -3.991,-18.09244 C 1676.2105,100.9075 1667.9336,100.33186 1653,100 l -22.5,-0.5 0.3624,-16.653309 0.3624,-16.653309 -2.4555,-1.608882 c -2.2273,-1.459392 -13.4415,-1.58452 -120.6931,-1.346691 -116.917,0.259262 -118.2544,0.28453 -119.7346,2.262191 -1.2186,1.628002 -1.4361,4.975984 -1.1693,18 l 0.3277,16 -22.5992,0.5 c -24.4291,0.54049 -24.5976,0.5792 -27.5738,6.33464 -3.0169,5.83403 0.4875,32.03967 6.8086,50.91439 12.4098,37.05513 41.0867,69.08634 77.3205,86.36451 3.1889,1.52067 4.8719,3.49075 8.6791,10.16011 9.9438,17.41934 21.9864,32.14245 34.2547,41.87925 7.5207,5.96895 20.0996,13.19581 25.3646,14.57265 2.0627,0.5394 2.2455,1.16818 2.2455,7.72299 0,17.27929 -7.6458,40.7019 -18.707,57.30806 -5.7364,8.61215 -16.3029,19.98759 -24.9787,26.89118 L 1442,407.17221 v 6.34246 c 0,4.43255 0.4732,6.81568 1.5714,7.9139 1.3958,1.39576 8.709,1.57143 65.4182,1.57143 35.1158,0 64.5586,-0.27314 65.4286,-0.60699 z M 1402.9446,208.66319 c -13.6034,-11.26507 -26.0893,-26.87703 -33.7206,-42.16319 -6.461,-12.94166 -12.7655,-35.15875 -12.0602,-42.5 l 0.3362,-3.5 15.7014,-0.27515 c 14.1848,-0.24857 15.7921,-0.10369 16.6409,1.5 0.5167,0.97633 1.4782,6.05015 2.1366,11.27515 2.5821,20.4912 8.4321,46.64672 15.0936,67.48396 2.1601,6.75685 3.9275,12.56212 3.9275,12.90061 0,1.4631 -2.0095,0.2853 -8.0554,-4.72138 z M 1608,212.06993 c 0,-1.1162 0.6581,-3.72606 1.4624,-5.79969 6.1058,-15.74164 13.8703,-49.874 18.2601,-80.27024 l 0.7943,-5.5 15.9163,-0.27628 c 12.0581,-0.20931 16.116,0.0331 16.7398,1 1.6724,2.59217 -2.3132,21.52015 -7.2174,34.27628 -7.5988,19.76519 -21.0698,38.77113 -36.5697,51.59549 -8.5478,7.07228 -9.3858,7.51644 -9.3858,4.97444 z m -982.12387,20.01343 c 27.67942,-6.98369 43.05705,-25.5768 43.10909,-52.12326 0.0271,-13.80215 -4.6644,-25.86702 -12.86555,-33.08597 -9.96566,-8.77212 -22.52267,-13.66335 -50.9881,-19.861 -9.69736,-2.11137 -18.82586,-4.30049 -20.28554,-4.86473 -10.65641,-4.11918 -8.22552,-15.68223 3.82269,-18.18343 12.12399,-2.51693 20.60143,0.87018 24.55657,9.81142 1.05648,2.38836 2.51714,4.57128 3.2459,4.85093 2.29446,0.88047 46.94916,-3.71266 48.24743,-4.96267 1.59516,-1.53586 -0.65124,-11.51003 -4.3892,-19.488414 C 656.75272,86.542065 646.45315,76.457601 638,72.313153 c -12.9384,-6.343492 -20.42758,-7.785903 -40.5,-7.80027 -21.18222,-0.01516 -29.44263,1.473804 -42.30539,7.625676 -15.58493,7.453807 -24.98889,20.073039 -27.42764,36.805341 -2.13667,14.65965 1.53179,28.82156 9.8682,38.0957 9.29464,10.34016 22.5293,15.9321 51.96241,21.95527 10.70078,2.1898 20.78968,4.67115 22.41977,5.5141 4.44874,2.30053 6.33887,5.79854 5.70138,10.55135 -1.01297,7.5523 -5.61077,10.3242 -17.21873,10.38074 -13.37748,0.0652 -20.92294,-4.17689 -24.02113,-13.50468 l -1.65089,-4.97036 -25.16399,0.26699 L 524.5,177.5 l -0.32011,2.25423 c -0.46764,3.2932 3.43382,17.91192 6.40394,23.99553 3.224,6.60359 11.3979,15.62254 17.91617,19.76839 6.95259,4.42211 16.88743,8.19992 26.15116,9.94422 11.69159,2.20145 40.06101,1.43773 51.22497,-1.37901 z M 106.76232,193.75 c 0.2371,-33.21589 0.82334,-41.02874 2.62625,-35 0.28783,0.9625 3.9385,13.225 8.11258,27.25 4.17408,14.025 8.93822,29.8875 10.58698,35.25 l 2.99776,9.75 h 17.83461 c 13.088,0 18.09062,-0.33268 18.79653,-1.25 0.52905,-0.6875 5.36431,-16.1 10.74502,-34.25 5.3807,-18.15 10.24108,-34.125 10.80085,-35.5 l 1.01775,-2.5 0.75999,2.5 c 0.418,1.375 0.80486,17.9125 0.85968,36.75 L 192,231 H 215.5 239 V 149.5 68 H 209.53525 180.0705 l -2.87846,9.25 c -1.58315,5.0875 -7.95866,26.19495 -14.16779,46.90545 -6.20914,20.71049 -11.65523,38.24746 -12.10242,38.97103 -0.4472,0.72358 -1.09472,1.03397 -1.43893,0.68975 -0.34422,-0.34422 -7.04595,-21.93119 -14.89274,-47.97104 L 120.32327,68.5 90.980167,68.234607 c -22.80851,-0.206291 -29.52198,0.01641 -30.146324,1 -0.9285,1.462763 -1.142955,157.796283 -0.219762,160.202083 0.542218,1.413 3.26306,1.56886 23.25,1.33179 L 106.5,230.5 Z m 247.10344,35.5 c 0.51487,-0.9625 2.15493,-6.25 3.64457,-11.75 1.48964,-5.5 3.16432,-10.5625 3.7215,-11.25 1.45807,-1.7991 49.08318,-1.7991 50.52515,0 0.55103,0.6875 2.1925,5.525 3.64771,10.75 4.4039,15.81236 0.5107,14 30.07387,14 C 467.83144,231 471,230.80812 471,229.45452 471,228.6045 462.6331,201.942 452.40689,170.20452 442.18068,138.46703 430.87422,103.275 427.28143,92 423.68863,80.725 420.33969,70.7125 419.83935,69.75 419.00236,68.139907 416.42391,68 387.58726,68 c -23.88865,0 -31.57361,0.29727 -32.31471,1.25 -0.53478,0.6875 -4.37696,11.825 -8.53817,24.75 -4.16121,12.925 -15.70376,48.55909 -25.65011,79.18687 C 311.13792,203.81464 303,229.35214 303,229.93687 303,230.65932 310.99991,231 327.96482,231 c 22.75272,0 25.04776,-0.15506 25.90094,-1.75 z m 19.15111,-66.5 c 0.0297,-3.95426 12.44314,-48.17854 13.48313,-48.03501 1.05341,0.14539 13.38734,44.16646 13.45857,48.03501 0.041,2.22427 -0.11296,2.25 -13.45857,2.25 -13.33833,0 -13.4998,-0.0269 -13.48313,-2.25 z M 824,171.5 l 0.5,-59 22.25,-0.26913 22.25,-0.26913 V 89.980868 68 h -70.89301 c -63.72266,0 -70.95441,0.159987 -71.5,1.581787 -0.89519,2.332832 -0.70904,39.709353 0.20494,41.148143 0.57055,0.89817 6.70303,1.30278 22.73468,1.5 L 771.5,112.5 l 0.24925,58 c 0.13709,31.9 0.46344,58.57025 0.72522,59.26722 0.37066,0.98683 6.06855,1.2081 25.75075,1 L 823.5,230.5 Z m 231.5057,58.25 c 0.572,-1.6146 3.4867,-31.24332 3.491,-35.48768 v -3.23768 l -36.75,-0.26232 -36.75,-0.26232 V 180 169.5 l 32.25,-0.26385 32.25,-0.26386 V 149 129.02771 l -32.25,-0.26386 -32.25,-0.26385 v -10 -10 l 34.5,-0.5 34.5,-0.5 V 88 68.5 l -59.93607,-0.257942 c -47.28663,-0.203504 -60.10463,0.0075 -60.73469,1 -0.92087,1.450507 -1.13779,157.790292 -0.22225,160.176152 0.54423,1.41824 6.85473,1.58179 61.03138,1.58179 47.43663,0 60.51963,-0.26868 60.86733,-1.25 z m 116.701,1 c 0.1137,-0.1375 0.4512,-11.725 0.75,-25.75 l 0.5433,-25.5 h 8.4284 8.4285 l 12.0998,24.13032 c 6.6548,13.27168 12.7047,24.85918 13.444,25.75 1.1744,1.41505 4.5505,1.61968 26.7217,1.61968 22.004,0 25.3776,-0.20142 25.3776,-1.51516 0,-1.34312 -6.8721,-14.41436 -25.3779,-48.27046 C 1239.53,175.55729 1237,170.51031 1237,169.99886 c 0,-0.51144 3.0919,-4.02175 6.8708,-7.80069 11.5558,-11.55584 16.9651,-26.95182 15.7156,-44.72979 -1.5693,-22.327623 -11.7696,-36.692725 -31.326,-44.116494 -12.5742,-4.773232 -18.5624,-5.279398 -62.9034,-5.316998 -36.6152,-0.03105 -41.2098,0.139189 -41.75,1.546899 -0.7932,2.067031 -0.7932,157.769393 0,159.836423 0.53,1.38131 3.6352,1.58179 24.5,1.58179 13.1411,0 23.986,-0.1125 24.0997,-0.25 z m 1.287,-90.90591 c -0.3007,-0.7834 -0.4222,-8.60631 -0.2702,-17.38423 L 1173.5,106.5 l 12.5623,0.0545 c 10.6297,0.0462 13.168,0.36883 16.5,2.09754 5.4934,2.8501 7.9275,7.40916 7.9275,14.84792 0,7.41137 -2.432,11.9967 -7.8552,14.81038 -5.0972,2.64457 -28.2471,3.86296 -29.1409,1.53371 z"
       id="path823"
       inkscape:connector-curvature="0" />
    <path
       style="fill:#27282e"
       d="M 0,281.5 V 0 h 868 868 V 281.5 563 H 868 0 Z m 213,131.5 0.5,-91.5 34.44924,-0.26336 c 26.03217,-0.19902 34.64115,-0.56551 35.23469,-1.5 0.43199,-0.68015 0.79234,-16.14404 0.80076,-34.3642 0.0123,-26.69864 -0.24819,-33.34623 -1.34246,-34.2544 -0.99311,-0.82421 -31.0057,-1.05852 -111.75,-0.87244 L 60.5,250.5 v 35 35 l 34.75,0.26296 34.75,0.26296 v 90.78704 c 0,69.74366 0.28073,91.06777 1.21116,91.9982 0.91679,0.91679 10.94273,1.14769 41.25,0.95 L 212.5,504.5 Z m 174.86566,90.66187 c 0.7618,-0.91791 1.1928,-13.55785 1.37245,-40.25 L 389.5,424.5 h 13 13 l 19.5,38.64001 c 10.725,21.252 20.1176,39.3645 20.87244,40.25 1.21968,1.43078 5.87033,1.60999 41.78139,1.60999 34.82645,0 40.48771,-0.20528 40.97914,-1.48593 0.31661,-0.82507 -2.97596,-8.05206 -7.40342,-16.25 -4.38549,-8.12024 -15.68121,-29.01446 -25.10159,-46.4316 C 496.70758,423.41533 489,408.52887 489,407.75145 c 0,-0.77742 1.16824,-2.03872 2.5961,-2.80288 1.42785,-0.76416 6.29381,-5.27506 10.81324,-10.02421 16.43556,-17.27096 23.77233,-39.20447 22.32037,-66.72746 -1.19476,-22.64751 -7.6989,-38.32756 -21.66214,-52.22266 C 496.05317,268.99408 492.7778,266.593 485,262.72944 473.36699,256.95084 461.39411,253.47339 446.33419,251.49921 431.26365,249.52363 314.13764,249.26236 312.2,251.2 c -1.74295,1.74295 -1.74295,250.85705 0,252.6 1.84203,1.84203 74.1318,1.71006 75.66566,-0.13813 z M 389.23283,337.75 389.5,312.5 l 19,0.0841 c 17.15678,0.0759 19.55591,0.30045 24.73036,2.3145 6.44573,2.50888 10.83374,7.03431 12.62821,13.02371 1.60647,5.36192 1.4182,15.04183 -0.39237,20.17352 -4.10578,11.63702 -13.08976,14.88272 -41.23337,14.89665 L 388.96566,363 Z M 642.8,503.8 c 1.74295,-1.74295 1.74295,-250.85705 0,-252.6 -1.72329,-1.72329 -78.87671,-1.72329 -80.6,0 -1.74295,1.74295 -1.74295,250.85705 0,252.6 1.72329,1.72329 78.87671,1.72329 80.6,0 z m 207.09806,-0.60952 c 0.80225,-1.49902 21.808,-69.53229 32.94143,-106.69048 1.64792,-5.5 12.04795,-39.7 23.11117,-76 11.06322,-36.3 19.98768,-66.9 19.83214,-68 -0.27702,-1.95912 -1.14369,-2.00533 -42.40143,-2.26075 -32.94122,-0.20393 -42.3374,0.014 -43.12264,1 -0.55219,0.69341 -9.88851,37.18605 -20.74736,81.09475 -10.85885,43.9087 -20.0852,79.4587 -20.50299,79 -0.41779,-0.4587 -9.62031,-36.68476 -20.45004,-80.50235 -14.06943,-56.92555 -20.12313,-79.8344 -21.20617,-80.25 C 756.51851,250.26174 736.95911,250 713.88683,250 c -37.95471,0 -42.00952,0.15615 -42.57882,1.63972 -0.34607,0.90185 3.98549,16.98935 9.62568,35.75 43.55192,144.86423 65.39426,216.19803 66.39443,216.83423 0.64453,0.40998 23.76855,0.75232 51.3867,0.76074 47.43824,0.0145 50.26836,-0.0847 51.18324,-1.79421 z M 1034.8,503.8 c 1.7429,-1.74295 1.7429,-250.85705 0,-252.6 -1.7233,-1.72329 -78.87671,-1.72329 -80.6,0 -1.74295,1.74295 -1.74295,250.85705 0,252.6 1.72329,1.72329 78.8767,1.72329 80.6,0 z m 109.9261,-0.52859 c 0.3648,-0.95073 2.9382,-10.06323 5.7186,-20.25 L 1155.5,464.5 l 39.1789,-0.26154 c 36.6738,-0.24482 39.213,-0.14891 39.7101,1.5 0.2922,0.96885 2.5875,9.18654 5.1008,18.26154 2.5132,9.075 4.9965,17.5125 5.5184,18.75 l 0.9489,2.25 h 40.5528 c 33.8378,0 40.6418,-0.23183 41.0901,-1.40005 0.2955,-0.77003 -5.9902,-21.58253 -13.9681,-46.25 -7.978,-24.66747 -16.9655,-52.49995 -19.9722,-61.84995 -20.742,-64.50133 -37.511,-116.25988 -41.956,-129.5 L 1246.5,250.5 h -50.4584 -50.4585 l -1.2424,3.5 c -0.6833,1.925 -7.3044,22.175 -14.7136,45 -7.4092,22.825 -19.5536,60.175 -26.9875,83 -34.4013,105.62451 -38.9008,119.87706 -38.3212,121.38745 0.5548,1.4458 4.7099,1.61255 40.1816,1.61255 36.5697,0 39.613,-0.13078 40.2261,-1.72859 z m 29.1079,-104.77073 c -0.49,-0.48998 19.8291,-75.49708 20.6831,-76.35116 0.2397,-0.23967 0.6586,0.19113 0.9309,0.95735 1.1342,3.19135 20.552,74.32004 20.552,75.28313 0,0.72588 -41.442,0.83466 -42.166,0.11068 z M 1616,453.7 c 0,-19.9 -0.3253,-27.62527 -1.2,-28.5 -0.8482,-0.84823 -6.7111,-1.2 -20,-1.2 H 1576 v -8.87985 -8.87986 l -5.2636,-3.97408 c -25.0307,-18.89835 -41.2201,-49.0394 -44.2543,-82.39179 -0.7916,-8.70161 -1.4389,-7.82478 9.209,-12.47453 18.3395,-8.00858 35.6848,-25.30109 51.5567,-51.39989 l 6.3856,-10.5 9.4333,-5.00382 c 14.2813,-7.57537 24.336,-14.95801 35.4052,-25.99618 26.7704,-26.69533 41.5263,-59.51645 43.243,-96.18427 l 0.5704,-12.18428 -3.0657,-3.06572 L 1676.1538,100 h -22.4699 c -18.7877,0 -22.5618,-0.239502 -23.0308,-1.461498 -0.3084,-0.803823 -0.1342,-4.066323 0.3873,-7.25 0.5214,-3.183676 0.9506,-9.951002 0.9538,-15.038502 0.01,-14.959162 15.8372,-13.252557 -122.7442,-13.234687 -65.3125,0.0084 -119.2843,0.35508 -119.9374,0.770352 -2.7745,1.764141 -3.2867,6.239134 -2.3348,20.396619 0.5224,7.769178 0.7146,14.506464 0.427,14.971747 C 1387.1172,99.619314 1377.2547,100 1365.488,100 c -13.2527,0 -22.3003,0.41297 -23.7757,1.08521 -4.8233,2.19765 -6.0589,6.15585 -5.4034,17.31021 2.0884,35.54196 16.3128,67.71523 41.4343,93.71752 11.4145,11.81479 23.2244,20.71663 37.8323,28.51657 9.4572,5.04969 9.6745,5.24845 13.964,12.77446 7.7114,13.53004 15.5955,23.85039 26.4291,34.59603 10.7628,10.67542 18.9185,16.33247 30.2814,21.00405 l 5.75,2.36398 v 5.70552 c 0,12.21806 -5.1446,32.10111 -11.7537,45.42645 -7.3236,14.76582 -16.2608,26.0646 -29.5711,37.38513 l -8.9021,7.57123 0.4342,8.27182 0.4342,8.27182 h -18.7641 c -18.2566,0 -18.8061,0.0601 -20.3207,2.22251 -1.3131,1.87465 -1.5567,6.33528 -1.5567,28.5 V 481 h 107 107 z M 1400.8564,206.64436 c -13.202,-11.2646 -24.9512,-26.60702 -32.4062,-42.3168 -5.9321,-12.50082 -11.899,-34.13486 -11.2483,-40.78272 L 1357.5,120.5 h 15.9679 15.9679 l 1.7446,11 c 3.0975,19.52908 3.8746,23.80399 6.4538,35.5 2.5044,11.35698 7.793,30.37263 10.8121,38.87573 1.7419,4.9059 1.9619,7.12427 0.7063,7.12427 -0.4661,0 -4.1993,-2.86004 -8.2962,-6.35564 z M 1608,212.34507 c 0,-0.36021 1.5863,-5.56172 3.525,-11.55891 6.0933,-18.84854 11.8728,-44.07552 14.957,-65.28616 0.8797,-6.05 1.8147,-12.0125 2.0778,-13.25 0.4707,-2.2143 0.7207,-2.25 15.7593,-2.25 9.929,0 15.6725,0.39155 16.3989,1.11798 1.2167,1.21676 0.9268,4.57115 -1.3294,15.38202 -5.6978,27.30134 -21.3716,53.00641 -43.6905,71.65278 -5.4121,4.52152 -7.6981,5.76646 -7.6981,4.19229 z m -982.5,20.75545 c 29.01911,-7.577 44.43199,-25.98867 44.48522,-53.14042 0.0277,-14.15101 -4.56902,-25.6372 -13.54189,-33.8379 -9.55145,-8.72948 -23.0382,-13.95023 -52.02898,-20.14049 -10.22069,-2.18237 -19.10761,-4.26299 -19.74871,-4.6236 -8.96181,-5.04081 -6.91902,-14.03902 3.72808,-16.42174 7.33949,-1.6425 15.78542,-0.49796 19.52106,2.64538 1.59178,1.33939 3.72464,4.45923 4.73968,6.93298 1.01505,2.47375 2.54327,4.72176 3.39604,4.99557 0.85278,0.27381 11.20278,-0.40074 23,-1.49901 11.79723,-1.09827 22.44617,-2.0001 23.66432,-2.00407 3.58129,-0.0117 4.37053,-2.88104 2.7285,-9.91979 -2.40813,-10.322727 -6.1348,-16.941883 -13.86379,-24.624305 -7.9535,-7.905583 -15.67898,-12.19233 -28.23758,-15.668592 -6.7966,-1.881321 -10.3747,-2.16771 -26.84195,-2.148411 -16.30684,0.01911 -20.13396,0.329154 -27,2.187323 -12.16345,3.291817 -21.73494,8.427338 -28.9226,15.51822 -7.12969,7.033699 -10.91974,14.044735 -13.06361,24.165775 -1.84816,8.72505 -1.86518,14.16087 -0.0708,22.62654 1.79898,8.48754 4.58984,13.90767 10.30991,20.02289 9.66228,10.32976 23.16882,16.08829 50.1717,21.39076 25.65043,5.0369 29.07544,6.71323 29.07544,14.23062 0,7.83189 -4.63849,10.65474 -17.5,10.65002 -13.1795,-0.005 -18.5765,-3.14922 -22.20712,-12.93827 l -1.85443,-5 -24.84538,-0.26775 c -18.46506,-0.19898 -25.22423,0.0467 -26.32065,0.95662 -3.38282,2.80749 2.14456,22.36939 9.31807,32.97751 7.47843,11.05904 20.20192,19.1902 35.67581,22.79925 12.18638,2.84228 12.79522,2.89188 31.2337,2.54424 13.23793,-0.24959 18.77039,-0.78277 25,-2.40935 z M 108,196 c 0.275,-19.525 0.81744,-34.825 1.20543,-34 0.38798,0.825 5.04833,16.125 10.35632,34 5.30799,17.875 10.07416,33.29735 10.59147,34.27189 0.8571,1.61464 2.60051,1.74776 19.64368,1.5 L 168.5,231.5 l 2.18724,-7 c 1.20298,-3.85 5.8913,-19.50168 10.41849,-34.78151 4.52719,-15.27983 8.59933,-27.41343 9.0492,-26.96356 0.44987,0.44987 0.93655,16.10155 1.08151,34.78151 L 191.5,231.5 h 24 24 v -82 -82 l -29.70689,-0.264814 c -27.52791,-0.24539 -29.77468,-0.135367 -30.63111,1.5 -0.50832,0.970648 -7.12679,22.352314 -14.7077,47.514814 -7.58091,25.1625 -14.06611,45.75 -14.41156,45.75 -0.34545,0 -6.6201,-19.9125 -13.94366,-44.25 C 128.77552,93.4125 122.17737,72.030773 121.43654,70.23505 L 120.08956,66.970101 90.29478,67.23505 60.5,67.5 l -0.258338,81 c -0.142086,44.55 -0.04052,81.57082 0.22571,82.26849 0.375967,0.98525 5.680897,1.20854 23.758339,1 L 107.5,231.5 Z m 250.03311,23 3.53312,-12.5 h 24.92951 24.92952 l 3.24526,11.3468 c 1.78489,6.24073 3.76931,11.97823 4.40981,12.75 1.72724,2.08119 51.72442,2.07558 52.52316,-0.006 0.69525,-1.81168 1.04457,-0.66103 -19.91265,-65.5908 C 446.9865,150.425 438.16165,123.02724 432.08006,104.1161 425.99847,85.204949 420.51244,69.117449 419.88887,68.366096 418.97466,67.264536 412.69287,67 387.44898,67 360.3222,67 355.93307,67.209785 354.57143,68.571429 353.70714,69.435714 353,70.613346 353,71.188387 c 0,0.920231 -21.86292,68.664613 -43.62952,135.190293 -4.11713,12.58328 -7.24597,23.5034 -6.95298,24.26694 0.43914,1.14436 5.06091,1.34135 26.30761,1.12131 L 354.5,231.5 Z m 15.78259,-55.51763 c -0.42575,-0.42575 3.11021,-14.19405 11.25723,-43.83331 0.58219,-2.11802 1.27173,-3.63773 1.53233,-3.37714 0.7284,0.72841 12.38847,43.99146 12.3918,45.97808 0.003,1.57223 -1.24991,1.75 -12.33039,1.75 -6.78334,0 -12.56627,-0.23294 -12.85097,-0.51763 z M 824.22999,231.75 c 0.1265,-0.1375 0.464,-26.8 0.75,-59.25 l 0.52001,-59 22,-0.5 22,-0.5 V 90 67.5 H 798 726.5 V 90 112.5 l 22.25,0.26913 22.25,0.26913 v 58.8142 c 0,32.34782 0.3,59.11421 0.66667,59.48087 0.60225,0.60225 52.01764,1.00982 52.56332,0.41667 z m 231.53591,-1 c 1.2372,-1.52999 4.7733,-36.9025 3.9131,-39.14401 C 1059.1287,190.17189 1055.1527,190 1022.5314,190 H 986 v -9.98615 -9.98614 l 32.25,-0.26386 L 1050.5,169.5 V 149 128.5 L 1018.25,128.23615 986,127.97229 V 118.48615 109 h 34.393 c 30.4394,0 34.4628,-0.18183 35,-1.58179 0.3339,-0.86998 0.607,-9.81488 0.607,-19.877553 0,-14.219126 -0.3035,-18.547635 -1.362,-19.426135 -0.9871,-0.819187 -17.8487,-1.059364 -61.25001,-0.872445 L 933.5,67.5 l -0.25834,81 c -0.14208,44.55 -0.0437,81.5625 0.21862,82.25 0.69708,1.82692 120.82832,1.82692 122.30562,0 z M 1173.0433,206 c 0.2988,-14.025 0.6363,-25.6125 0.75,-25.75 0.1137,-0.1375 3.738,-0.25 8.054,-0.25 h 7.8474 l 13.0451,25.75 13.0451,25.75 26.2881,0.26696 c 20.0767,0.20388 26.4691,-0.026 27.0544,-0.9731 0.4507,-0.72925 -0.8125,-4.13456 -3.0666,-8.26695 C 1246.1126,185.95622 1238,170.78872 1238,170.06399 c 0,-0.4714 3.0774,-3.94115 6.8387,-7.71054 11.1616,-11.18578 15.5783,-22.90032 15.5911,-41.35345 0.019,-27.309044 -13.1528,-43.958669 -40.5586,-51.267509 C 1211.8118,67.583164 1209.8609,67.5 1167.5,67.5 h -44 l -0.2583,81 c -0.1421,44.55 -0.041,81.57053 0.2254,82.26783 0.3763,0.986 5.8801,1.2083 24.7584,1 L 1172.5,231.5 Z m 0.7067,-66.56396 c -1.051,-1.07817 -0.9115,-29.63268 0.153,-31.3133 1.3496,-2.1307 23.3304,-1.10469 28.3911,1.32522 10.0498,4.82547 10.1094,23.24434 0.091,28.06566 -2.9222,1.40624 -6.859,1.97148 -15.885,2.28069 -6.6,0.2261 -12.3375,0.0649 -12.75,-0.35827 z"
       id="path821"
       inkscape:connector-curvature="0" />
    <path
       style="fill:#060606"
       d="M 0,281.5 V 0 h 868 868 V 281.5 563 H 868 0 Z m 212.8,223.3 c 0.91571,-0.91571 1.2,-22.71111 1.2,-92 V 322 h 34.46482 c 33.05089,0 34.50728,-0.0793 35.5,-1.93426 C 284.6184,318.84452 285,305.96864 285,285.13717 285,256.47567 284.79364,251.9365 283.42857,250.57143 282.01901,249.16187 270.50303,249 171.62857,249 87.228571,249 61.118818,249.28118 60.2,250.2 c -1.71908,1.71908 -1.71908,68.88092 0,70.6 0.885974,0.88597 10.040992,1.2 34.984464,1.2 h 33.784466 l 0.26553,91.03663 c 0.23229,79.63845 0.45335,91.15533 1.76554,91.98469 2.35327,1.48735 80.30223,1.27645 81.8,-0.22132 z m 175.62857,-0.37143 C 389.80332,503.05382 390,497.98485 390,463.92857 V 425 h 12.49756 12.49756 l 19.99433,39.97891 c 16.10562,32.20338 20.43352,40.08574 22.25244,40.52816 1.24196,0.30209 20.25204,0.42408 42.24462,0.27109 37.48345,-0.26075 40.00805,-0.39006 40.33058,-2.06583 0.18924,-0.98321 -4.70636,-11.10821 -10.8791,-22.5 C 497.03342,422.3325 490,409.16618 490,408.32175 c 0,-0.50758 3.10255,-3.47524 6.89456,-6.5948 20.08508,-16.52337 30.66971,-43.96667 28.7062,-74.42801 C 523.10659,288.60511 502.6118,264.03883 464.5,254.05991 447.18363,249.52592 437.72735,249 373.52021,249 c -53.55517,0 -60.55491,0.17756 -61.94878,1.57143 C 310.15957,251.98329 310,264.87229 310,377.5 c 0,112.62771 0.15957,125.51671 1.57143,126.92857 C 312.94315,505.8003 317.82684,506 350,506 c 32.17316,0 37.05685,-0.1997 38.42857,-1.57143 z M 390,337.59367 V 313 h 15.95078 c 8.77293,0 18.33543,0.49467 21.25,1.09927 7.15194,1.48361 13.13797,5.09944 15.96219,9.64188 2.02159,3.2515 2.33703,5.0411 2.33703,13.25885 0,10.95295 -1.89004,15.94784 -7.46936,19.73954 -5.59694,3.8037 -9.88546,4.53595 -29.28064,4.99959 L 390,362.18734 Z m 253.42857,166.8349 C 644.84043,503.01671 645,490.12771 645,377.5 645,264.87229 644.84043,251.98329 643.42857,250.57143 642.05252,249.19538 636.89714,249 601.96376,249 c -38.41797,0 -39.93168,0.0715 -40.92858,1.93426 C 560.33744,252.238 560,293.61343 560,377.86283 c 0,112.29786 0.15962,125.15393 1.57143,126.56574 C 562.94676,505.80391 568.05411,506 602.5,506 c 34.44589,0 39.55324,-0.19609 40.92857,-1.57143 z M 850.416,503.75 c 0.80415,-1.2375 4.22609,-11.475 7.6043,-22.75 5.69011,-18.99113 11.22896,-37.19974 33.46076,-110 4.61888,-15.125 12.96283,-42.575 18.54209,-61 5.57927,-18.425 11.68149,-38.32918 13.56049,-44.23151 3.79465,-11.91982 4.17423,-15.26369 1.83457,-16.1615 -2.45426,-0.94179 -83.74716,-0.68479 -85.25263,0.26951 -1.19493,0.75746 -5.70378,18.41723 -33.68788,131.94503 -3.70405,15.02684 -7.07525,26.95184 -7.49154,26.5 C 798.56986,407.86969 795.04472,394.45 791.15251,378.5 766.95672,279.3472 759.79511,251.43065 758.25175,250.25 757.00478,249.29608 746.73418,249 714.89066,249 c -22.9499,0 -42.43889,0.27314 -43.30887,0.60699 C 670.7118,249.94083 670,251.08438 670,252.1482 c 0,1.70103 7.77491,27.95959 31.34171,105.8518 12.79115,42.27688 34.94752,115.76336 39.34609,130.5 2.46245,8.25 5.20107,15.5625 6.08582,16.25 1.23814,0.9621 13.19041,1.25 51.89446,1.25 h 50.28581 z m 185.0126,0.67857 C 1036.8404,503.01671 1037,490.12771 1037,377.5 1037,264.87229 1036.8404,251.98329 1035.4286,250.57143 1034.0525,249.19538 1028.8971,249 993.96376,249 c -38.41797,0 -39.93168,0.0715 -40.92858,1.93426 C 952.33744,252.238 952,293.61343 952,377.86283 c 0,112.29786 0.15962,125.15393 1.57143,126.56574 C 954.94676,505.80391 960.05411,506 994.5,506 c 34.4459,0 39.5532,-0.19609 40.9286,-1.57143 z m 109.3687,0.31568 c 0.5732,-0.69067 3.1246,-9.12817 5.6698,-18.75 2.5452,-9.62184 4.8633,-18.287 5.1513,-19.25593 0.4902,-1.64876 3.0029,-1.7449 39.2027,-1.5 L 1233.5,465.5 l 5.2614,19 c 3.2511,11.74033 5.9032,19.47761 6.9411,20.25 1.2769,0.95021 11.0877,1.25 40.9068,1.25 21.5749,0 39.9389,-0.27314 40.8089,-0.60699 0.87,-0.33384 1.5818,-1.19178 1.5818,-1.90652 0,-0.71474 -5.2014,-17.4291 -11.5586,-37.14301 -19.4086,-60.18661 -30.509,-94.50209 -32.9445,-101.84348 -1.2772,-3.85 -4.1201,-12.625 -6.3175,-19.5 -28.3932,-88.83271 -30.1076,-93.89121 -32.2002,-95.01113 -2.941,-1.57397 -99.4618,-1.32381 -100.7513,0.26113 -0.5593,0.6875 -15.5091,45.8 -33.2218,100.25 -17.7126,54.45 -35.9851,110.62273 -40.6054,124.82828 -4.6204,14.20556 -8.4007,26.65556 -8.4007,27.66667 0,1.01111 0.5625,2.06536 1.25,2.34277 0.6875,0.27741 18.8574,0.53991 40.3776,0.58333 30.2562,0.0611 39.3638,-0.20576 40.1697,-1.1768 z M 1180.1754,376.25 c 11.0487,-41.23974 14.1154,-51.48176 14.9619,-49.96923 0.7052,1.26027 4.7357,15.55592 16.912,59.98591 1.6229,5.92167 2.9507,10.98417 2.9507,11.25 0,0.26582 -9.1466,0.48332 -20.3259,0.48332 h -20.3258 z M 1635.8,504.8 c 0.7602,-0.76023 1.2,-4.5874 1.2,-10.4433 C 1637,482.98828 1636.1135,482 1625.9154,482 h -6.6395 l -0.679,-7.49235 c -0.3734,-4.12079 -0.6131,-16.81328 -0.5326,-28.20553 C 1618.251,419.87138 1620.1839,422 1595.9962,422 1575.6838,422 1577,422.66095 1577,412.46081 v -6.37562 l -6.853,-5.46788 c -15.8366,-12.63582 -28.5603,-30.19338 -35.7793,-49.37246 -4.4273,-11.76232 -8.6165,-36.19217 -6.6464,-38.75978 0.4283,-0.55822 3.9287,-2.28555 7.7787,-3.83852 18.1807,-7.33352 39.3115,-28.54039 53.8435,-54.03724 4.3977,-7.71585 4.6168,-7.91965 13.8125,-12.84533 13.8917,-7.44104 23.2334,-14.1932 34.0047,-24.57838 18.772,-18.09903 30.3823,-36.31898 38.7116,-60.74973 4.2966,-12.60267 6.1609,-22.84497 6.8288,-37.51694 l 0.5726,-12.58106 -3.0528,-3.41894 L 1677.1682,99.5 1654.3341,99 c -18.4625,-0.404275 -22.7798,-0.758719 -22.5503,-1.851362 0.1561,-0.74325 0.5494,-7.71825 0.8741,-15.5 0.5644,-13.527612 0.4939,-14.269344 -1.6064,-16.898638 L 1628.8548,62 H 1509.0824 1389.31 l -1.905,2.105226 c -1.7056,1.884818 -1.8631,3.376731 -1.5048,14.25 0.2202,6.679626 0.4452,13.944774 0.5,16.144774 l 0.1,4 -22.5992,0.5 c -24.4674,0.541335 -24.5931,0.57045 -27.6069,6.39848 -1.2703,2.45662 -1.4572,5.0762 -0.9684,13.57283 3.0032,52.19609 34.0954,99.39824 81.2886,123.40702 6.7532,3.43554 7.3837,4.06329 12.4246,12.37044 17.0263,28.05833 34.378,45.43493 53.7702,53.8473 7.4837,3.24644 7.6999,3.43841 8.018,7.12016 0.4637,5.3677 -1.5582,18.12915 -4.4662,28.18907 -6.5167,22.54427 -21.4138,44.04628 -40.5689,58.55606 l -4.7082,3.5664 -0.2918,7.73612 -0.2918,7.73612 -17.9291,0.20686 c -16.6445,0.19204 -18.0774,0.35511 -20,2.27604 -1.9687,1.96704 -2.0956,3.43763 -2.5709,29.79314 l -0.5,27.72396 -7.2173,0.5 c -9.5811,0.66376 -10.4764,1.63182 -11.0751,11.97561 C 1380.4236,507.51813 1364.2319,506 1509.455,506 c 96.0017,0 125.4245,-0.27945 126.345,-1.2 z M 1400.1681,204.51562 c -21.7351,-19.57577 -34.9649,-42.68539 -40.6935,-71.08253 -1.006,-4.9868 -1.5338,-9.83638 -1.1729,-10.77685 0.5849,-1.5244 2.259,-1.67991 15.4272,-1.43309 L 1388.5,121.5 l 1.5797,9.5 c 0.8688,5.225 2.1213,12.875 2.7834,17 1.5694,9.77844 5.7563,28.6522 8.3188,37.5 2.686,9.27414 6.488,21.56802 7.3448,23.75 1.2354,3.14583 -1.0405,1.85675 -8.3586,-4.73438 z m 209.9637,3.73438 c 6.5793,-16.71651 16.611,-60.96405 19.1009,-84.25 l 0.2673,-2.5 15.25,-0.27605 15.25,-0.27604 v 4.44709 c 0,2.4459 -0.893,8.19512 -1.9844,12.77604 -6.1922,25.99014 -20.6609,50.10197 -40.1083,66.8398 -7.7493,6.66967 -9.3955,7.35547 -7.7755,3.23916 z m -984.06197,25.43581 c 27.7672,-7.19349 42.49923,-23.30508 44.57986,-48.75447 1.32027,-16.14907 -3.41774,-29.79787 -13.62418,-39.24724 C 647.03857,136.43795 634.68291,131.61674 604,124.99338 582.977,120.45526 580.5,119.24381 580.5,113.5 c 0,-2.98635 0.59441,-4.22795 2.81942,-5.88916 2.36125,-1.76292 4.23685,-2.10547 11.54188,-2.10792 10.72238,-0.004 13.1221,1.31172 16.9622,9.29715 2.73579,5.68904 2.74957,5.69985 7.20876,5.65671 5.30513,-0.0513 41.26672,-3.28925 45.21774,-4.07134 2.43432,-0.48186 2.75,-0.99003 2.75,-4.4268 0,-6.21252 -4.34007,-18.199943 -8.98864,-24.826934 C 647.45845,72.087498 628.82598,63.694884 603,62.352975 c -26.37249,-1.370307 -48.44582,4.732946 -61.71585,17.064363 -10.87932,10.10981 -15.31643,20.937642 -15.50497,37.836612 -0.19366,17.35783 5.89962,29.35783 19.51375,38.43003 9.16157,6.10511 22.37076,10.63617 43.46997,14.91124 C 613.79069,175.66628 616,176.77468 616,184.25994 616,190.29242 609.79514,194 599.69942,194 c -11.50373,0 -19.46266,-4.69331 -21.6341,-12.75744 -0.62329,-2.3147 -1.98838,-4.6662 -3.03354,-5.22555 C 573.89518,175.40872 563.48852,175 549.13717,175 c -29.81073,0 -28.49622,-0.67652 -25.61833,13.18462 5.61547,27.04639 25.10083,43.54125 56.48116,47.81275 3.575,0.48663 13.25,0.72342 21.5,0.52621 11.88082,-0.284 16.99,-0.87411 24.56983,-2.83777 z M 107.69098,231.75 C 108.13594,231.0625 108.725,215.74476 109,197.71058 l 0.5,-32.78943 9.3512,31.78943 c 5.14316,17.48418 9.99103,32.80192 10.77305,34.03942 1.39024,2.19997 1.83002,2.25 19.77636,2.25 13.48094,0 18.62135,-0.3319 19.35948,-1.25 0.55274,-0.6875 4.23782,-12.05 8.18906,-25.25 3.95124,-13.2 8.3916,-27.825 9.86746,-32.5 l 2.68339,-8.5 0.26392,32.94959 c 0.1989,24.83215 0.56844,33.143 1.5,33.73468 1.4417,0.9157 45.81077,1.10803 48.15429,0.20874 C 240.84273,231.84637 241,223.66386 241,150.09301 241,87.887336 240.71375,68.113748 239.8,67.2 238.92132,66.321317 230.76068,66 209.32305,66 h -29.27694 l -1.4076,2.25 c -0.77418,1.2375 -7.42206,22.382576 -14.77306,46.98906 -7.351,24.60648 -13.59045,44.73521 -13.86545,44.73052 -0.275,-0.005 -3.39073,-9.78728 -6.92385,-21.73906 C 139.54304,126.27873 135.20703,111.775 133.44058,106 131.67413,100.225 128.54574,89.875 126.4886,83 120.79624,63.97608 125.01432,66 91.058734,66 75.166397,66 61.451771,66.273145 60.581787,66.606989 59.15715,67.153673 59,75.383141 59,149.44032 c 0,45.22449 0.3,82.52635 0.666667,82.89301 C 60.033333,232.7 70.806776,233 83.60765,233 c 17.52131,0 23.47429,-0.30898 24.08333,-1.25 z m 247.0872,0 c 0.56269,-0.6875 2.47392,-6.5375 4.24717,-13 L 362.24944,207 h 24.2614 24.2614 l 3.23282,11.75 c 1.77805,6.4625 3.6844,12.3125 4.23633,13 0.75713,0.94311 7.48716,1.25 27.41244,1.25 23.60946,0 26.476,-0.17475 27.04153,-1.6485 0.34792,-0.90668 -0.75127,-5.96918 -2.44265,-11.25 C 468.56133,214.82067 462.66633,196.55 457.1527,179.5 443.88772,138.48017 422,70.003841 422,69.523802 c 0,-0.20952 -0.70714,-1.088088 -1.57143,-1.952373 C 419.06707,66.209932 414.68404,66 387.6197,66 364.15404,66 355.98218,66.310996 354.77422,67.25 353.37451,68.33805 301,227.52843 301,230.69473 c 0,0.62623 0.5625,1.36558 1.25,1.64299 0.6875,0.27741 12.5574,0.53991 26.37756,0.58333 18.96921,0.0596 25.37829,-0.2274 26.15062,-1.17105 z m 21.25582,-75.5 c 0.99294,-3.7125 3.42988,-12.825 5.41543,-20.25 4.49268,-16.80045 4.63262,-17.25128 5.18388,-16.70002 0.24789,0.24789 2.91385,9.6193 5.92437,20.82536 3.01051,11.20606 5.67748,20.93716 5.9266,21.62466 0.34678,0.95699 -2.443,1.25 -11.90134,1.25 h -12.35428 z m 448.93082,74.81574 C 825.64401,229.79666 826,209.33492 826,171.56574 V 114 h 20.91821 c 11.50502,0 21.63002,-0.27314 22.5,-0.60699 C 870.79485,112.86475 871,109.90764 871,90.593011 871,74.665114 870.66124,68.061239 869.8,67.2 868.88945,66.289453 851.66262,66 798.38179,66 c -38.62002,0 -70.93002,0.273145 -71.8,0.606989 C 725.20344,67.135909 725,70.144618 725,90 c 0,19.85538 0.20344,22.86409 1.58179,23.39301 0.86998,0.33385 10.99498,0.60699 22.5,0.60699 H 770 v 57.56574 c 0,37.76918 0.35599,58.23092 1.03518,59.5 0.9826,1.836 2.35241,1.93426 26.96482,1.93426 24.61241,0 25.98222,-0.0983 26.96482,-1.93426 z m 230.95308,1.00619 c 1.0249,-0.64876 1.9802,-6.48296 3.4472,-21.05379 1.7616,-17.49735 1.8384,-20.27713 0.5821,-21.07193 -0.805,-0.50928 -17.3116,-0.92238 -37.1972,-0.9309 L 987,189 v -9 -9 h 30.9182 c 17.005,0 31.63,-0.27314 32.5,-0.60699 1.3701,-0.52576 1.5818,-3.3091 1.5818,-20.8 0,-14.37234 -0.3459,-20.53891 -1.2,-21.39301 -0.8822,-0.88222 -9.4889,-1.2 -32.5,-1.2 H 987 v -8.5 -8.5 h 33.9648 c 32.5566,0 34.0078,-0.0802 35,-1.93426 0.6066,-1.13333 1.0352,-9.592317 1.0352,-20.42857 0,-15.479678 -0.2561,-18.750461 -1.5714,-20.065741 C 1054.0353,66.178162 1047.1286,66 994.51036,66 961.86963,66 934.45177,66.273145 933.58179,66.606989 932.15713,67.15368 932,75.390485 932,149.52366 c 0,64.91207 0.26421,82.41628 1.25,82.81406 2.26945,0.91574 121.2083,0.65803 122.6679,-0.26579 z m 116.9415,-0.40251 c 0.722,-0.86994 1.1971,-9.78445 1.3724,-25.75 L 1174.5,181.5 h 7.457 7.457 l 12.543,24.57596 c 6.8987,13.51678 12.9071,25.10428 13.352,25.75 1.2913,1.87394 53.054,1.64651 54.6196,-0.23998 1.2228,-1.47337 -1.9045,-7.74387 -22.571,-45.2561 -4.5967,-8.34356 -8.3576,-15.5586 -8.3576,-16.03341 0,-0.47481 3.053,-3.99826 6.7845,-7.82988 7.1593,-7.35145 11.2079,-14.50067 13.7596,-24.29711 1.8862,-7.24152 1.8879,-25.95703 0,-33.03852 -5.0339,-18.913381 -17.8298,-30.584245 -39.8168,-36.316236 -7.6416,-1.992153 -11.2621,-2.175094 -50.6061,-2.557053 -23.3066,-0.226266 -43.4441,-0.143231 -44.75,0.184521 l -2.3743,0.595912 v 82.397616 c 0,64.98242 0.2642,82.50422 1.25,82.902 0.6875,0.27741 11.8824,0.53991 24.8776,0.58333 18.5207,0.0619 23.8662,-0.20864 24.7318,-1.25163 z M 1174,123.41844 v -15.58155 l 12.25,0.33155 c 18.6286,0.5042 22.2537,3.09969 22.2458,15.92728 0,6.08628 -0.2956,7.08587 -2.8466,9.74859 -3.6912,3.85274 -9.1479,5.15569 -21.592,5.15569 H 1174 Z"
       id="path819"
       inkscape:connector-curvature="0" />
  </g>
</svg>
